Benzinova-Extended-Thin.ufo
<glyph name="ampersand" format="1">
  <advance width="722.0"/>
  <unicode hex="0026"/>
  <outline>
    <contour>
      <point x="626" y="18" type="curve" smooth="yes"/>
      <point x="600" y="18"/>
      <point x="576" y="30"/>
      <point x="560" y="48" type="curve"/>
      <point x="580" y="60"/>
      <point x="624" y="92"/>
      <point x="624" y="108" type="curve" smooth="yes"/>
      <point x="624" y="118"/>
      <point x="616" y="124"/>
      <point x="606" y="124" type="curve" smooth="yes"/>
      <point x="596" y="124"/>
      <point x="562" y="88"/>
      <point x="542" y="74" type="curve"/>
      <point x="538" y="84"/>
      <point x="536" y="96"/>
      <point x="536" y="108" type="curve" smooth="yes"/>
      <point x="536" y="336" type="line" smooth="yes"/>
      <point x="536" y="464"/>
      <point x="432" y="564"/>
      <point x="304" y="564" type="curve" smooth="yes"/>
      <point x="222" y="564"/>
      <point x="156" y="636"/>
      <point x="156" y="716" type="curve" smooth="yes"/>
      <point x="156" y="822" type="line" smooth="yes"/>
      <point x="156" y="906"/>
      <point x="224" y="974"/>
      <point x="308" y="974" type="curve" smooth="yes"/>
      <point x="392" y="974"/>
      <point x="460" y="906"/>
      <point x="460" y="822" type="curve" smooth="yes"/>
      <point x="460" y="814"/>
      <point x="468" y="806"/>
      <point x="476" y="806" type="curve" smooth="yes"/>
      <point x="484" y="806"/>
      <point x="492" y="814"/>
      <point x="492" y="822" type="curve" smooth="yes"/>
      <point x="492" y="924"/>
      <point x="410" y="1006"/>
      <point x="308" y="1006" type="curve" smooth="yes"/>
      <point x="206" y="1006"/>
      <point x="124" y="924"/>
      <point x="124" y="822" type="curve" smooth="yes"/>
      <point x="124" y="716" type="line" smooth="yes"/>
      <point x="124" y="642"/>
      <point x="166" y="580"/>
      <point x="228" y="550" type="curve"/>
      <point x="142" y="518"/>
      <point x="80" y="434"/>
      <point x="80" y="336" type="curve" smooth="yes"/>
      <point x="80" y="216" type="line" smooth="yes"/>
      <point x="80" y="86"/>
      <point x="188" y="-32"/>
      <point x="308" y="-32" type="curve" smooth="yes"/>
      <point x="388" y="-32"/>
      <point x="466" y="-10"/>
      <point x="534" y="30" type="curve"/>
      <point x="556" y="4"/>
      <point x="588" y="-14"/>
      <point x="626" y="-14" type="curve" smooth="yes"/>
      <point x="634" y="-14"/>
      <point x="642" y="-6"/>
      <point x="642" y="2" type="curve" smooth="yes"/>
      <point x="642" y="12"/>
      <point x="634" y="18"/>
    </contour>
    <contour>
      <point x="308" y="0" type="curve" smooth="yes"/>
      <point x="204" y="0"/>
      <point x="112" y="104"/>
      <point x="112" y="216" type="curve" smooth="yes"/>
      <point x="112" y="336" type="line" smooth="yes"/>
      <point x="112" y="446"/>
      <point x="202" y="532"/>
      <point x="310" y="532" type="curve" smooth="yes"/>
      <point x="416" y="532"/>
      <point x="504" y="444"/>
      <point x="504" y="336" type="curve" smooth="yes"/>
      <point x="504" y="108" type="line" smooth="yes"/>
      <point x="504" y="90"/>
      <point x="508" y="72"/>
      <point x="516" y="56" type="curve"/>
      <point x="454" y="20"/>
      <point x="382" y="0"/>
    </contour>
  </outline>
</glyph>
<glyph name="plus" format="1">
  <advance width="612.0"/>
  <unicode hex="002B"/>
  <outline>
    <contour>
      <point x="516" y="442" type="curve"/>
      <point x="322" y="442" type="line"/>
      <point x="322" y="636" type="line" smooth="yes"/>
      <point x="322" y="646"/>
      <point x="314" y="652"/>
      <point x="306" y="652" type="curve" smooth="yes"/>
      <point x="298" y="652"/>
      <point x="290" y="646"/>
      <point x="290" y="636" type="curve" smooth="yes"/>
      <point x="290" y="442" type="line"/>
      <point x="96" y="442" type="line" smooth="yes"/>
      <point x="88" y="442"/>
      <point x="80" y="436"/>
      <point x="80" y="426" type="curve" smooth="yes"/>
      <point x="80" y="418"/>
      <point x="88" y="410"/>
      <point x="96" y="410" type="curve" smooth="yes"/>
      <point x="290" y="410" type="line"/>
      <point x="290" y="216" type="line" smooth="yes"/>
      <point x="290" y="208"/>
      <point x="298" y="200"/>
      <point x="306" y="200" type="curve" smooth="yes"/>
      <point x="314" y="200"/>
      <point x="322" y="208"/>
      <point x="322" y="216" type="curve" smooth="yes"/>
      <point x="322" y="410" type="line"/>
      <point x="516" y="410" type="line" smooth="yes"/>
      <point x="524" y="410"/>
      <point x="532" y="418"/>
      <point x="532" y="426" type="curve" smooth="yes"/>
      <point x="532" y="436"/>
      <point x="524" y="442"/>
    </contour>
  </outline>
</glyph>
<glyph name="period" format="1">
  <advance width="200"/>
  <unicode hex="002E"/>
  <outline>
    <contour>
      <point x="100" y="-4" type="curve" smooth="yes"/>
      <point x="113" y="-4"/>
      <point x="124" y="7"/>
      <point x="124" y="20" type="curve" smooth="yes"/>
      <point x="124" y="33"/>
      <point x="113" y="44"/>
      <point x="100" y="44" type="curve" smooth="yes"/>
      <point x="87" y="44"/>
      <point x="76" y="33"/>
      <point x="76" y="20" type="curve" smooth="yes"/>
      <point x="76" y="7"/>
      <point x="87" y="-4"/>
    </contour>
  </outline>
</glyph>
<glyph name="slash" format="1">
  <advance width="408.0"/>
  <unicode hex="002F"/>
  <outline>
    <contour>
      <point x="98" y="-16" type="curve" smooth="yes"/>
      <point x="106" y="-16"/>
      <point x="112" y="-10"/>
      <point x="114" y="-2" type="curve" smooth="yes"/>
      <point x="326" y="1198" type="line"/>
      <point x="326" y="1200" type="line" smooth="yes"/>
      <point x="326" y="1208"/>
      <point x="318" y="1216"/>
      <point x="308" y="1216" type="curve" smooth="yes"/>
      <point x="302" y="1216"/>
      <point x="296" y="1210"/>
      <point x="294" y="1202" type="curve" smooth="yes"/>
      <point x="82" y="2" type="line"/>
      <point x="82" y="0"/>
      <point x="82" y="0"/>
      <point x="82" y="-2" type="curve" smooth="yes"/>
      <point x="82" y="-8"/>
      <point x="88" y="-16"/>
    </contour>
  </outline>
</glyph>
<glyph name="zero" format="1">
  <advance width="616.0"/>
  <unicode hex="0030"/>
  <outline>
    <contour>
      <point x="536" y="998" type="line"/>
      <point x="536" y="1004" type="line" smooth="yes"/>
      <point x="536" y="1130"/>
      <point x="434" y="1232"/>
      <point x="308" y="1232" type="curve" smooth="yes"/>
      <point x="182" y="1232"/>
      <point x="80" y="1130"/>
      <point x="80" y="1004" type="curve" smooth="yes"/>
      <point x="80" y="196" type="line"/>
      <point x="80" y="196" type="line"/>
      <point x="80" y="70"/>
      <point x="182" y="-32"/>
      <point x="308" y="-32" type="curve" smooth="yes"/>
      <point x="434" y="-32"/>
      <point x="536" y="70"/>
      <point x="536" y="196" type="curve" smooth="yes"/>
      <point x="536" y="998" type="line"/>
    </contour>
    <contour>
      <point x="308" y="1200" type="curve" smooth="yes"/>
      <point x="416" y="1200"/>
      <point x="504" y="1112"/>
      <point x="504" y="1004" type="curve"/>
      <point x="112" y="260" type="line"/>
      <point x="112" y="1004" type="line" smooth="yes"/>
      <point x="112" y="1112"/>
      <point x="200" y="1200"/>
    </contour>
    <contour>
      <point x="308" y="0" type="curve" smooth="yes"/>
      <point x="202" y="0"/>
      <point x="114" y="86"/>
      <point x="112" y="192" type="curve"/>
      <point x="504" y="934" type="line"/>
      <point x="504" y="196" type="line" smooth="yes"/>
      <point x="504" y="88"/>
      <point x="416" y="0"/>
    </contour>
  </outline>
</glyph>
<glyph name="two" format="1">
  <advance width="616.0"/>
  <unicode hex="0032"/>
  <outline>
    <contour>
      <point x="308" y="486" type="curve" smooth="yes"/>
      <point x="434" y="486"/>
      <point x="536" y="588"/>
      <point x="536" y="714" type="curve" smooth="yes"/>
      <point x="536" y="1004" type="line" smooth="yes"/>
      <point x="536" y="1130"/>
      <point x="434" y="1232"/>
      <point x="308" y="1232" type="curve" smooth="yes"/>
      <point x="182" y="1232"/>
      <point x="80" y="1130"/>
      <point x="80" y="1004" type="curve" smooth="yes"/>
      <point x="80" y="996"/>
      <point x="88" y="988"/>
      <point x="96" y="988" type="curve" smooth="yes"/>
      <point x="104" y="988"/>
      <point x="112" y="996"/>
      <point x="112" y="1004" type="curve" smooth="yes"/>
      <point x="112" y="1112"/>
      <point x="200" y="1200"/>
      <point x="308" y="1200" type="curve" smooth="yes"/>
      <point x="416" y="1200"/>
      <point x="504" y="1112"/>
      <point x="504" y="1004" type="curve" smooth="yes"/>
      <point x="504" y="714" type="line" smooth="yes"/>
      <point x="504" y="606"/>
      <point x="416" y="518"/>
      <point x="308" y="518" type="curve" smooth="yes"/>
      <point x="182" y="518"/>
      <point x="80" y="416"/>
      <point x="80" y="290" type="curve" smooth="yes"/>
      <point x="80" y="16" type="line" smooth="yes"/>
      <point x="80" y="6"/>
      <point x="86" y="0"/>
      <point x="96" y="0" type="curve" smooth="yes"/>
      <point x="520" y="0" type="line" smooth="yes"/>
      <point x="528" y="0"/>
      <point x="536" y="8"/>
      <point x="536" y="16" type="curve" smooth="yes"/>
      <point x="536" y="24"/>
      <point x="528" y="32"/>
      <point x="520" y="32" type="curve" smooth="yes"/>
      <point x="112" y="32" type="line"/>
      <point x="112" y="290" type="line" smooth="yes"/>
      <point x="112" y="398"/>
      <point x="200" y="486"/>
    </contour>
  </outline>
</glyph>
<glyph name="five" format="1">
  <advance width="616.0"/>
  <unicode hex="0035"/>
  <outline>
    <contour>
      <point x="308" y="-32" type="curve" smooth="yes"/>
      <point x="434" y="-32"/>
      <point x="536" y="70"/>
      <point x="536" y="196" type="curve" smooth="yes"/>
      <point x="536" y="486" type="line" smooth="yes"/>
      <point x="536" y="610"/>
      <point x="434" y="714"/>
      <point x="308" y="714" type="curve" smooth="yes"/>
      <point x="112" y="714" type="line"/>
      <point x="112" y="1168" type="line"/>
      <point x="520" y="1168" type="line" smooth="yes"/>
      <point x="528" y="1168"/>
      <point x="536" y="1176"/>
      <point x="536" y="1184" type="curve" smooth="yes"/>
      <point x="536" y="1192"/>
      <point x="528" y="1200"/>
      <point x="520" y="1200" type="curve" smooth="yes"/>
      <point x="96" y="1200" type="line" smooth="yes"/>
      <point x="88" y="1200"/>
      <point x="80" y="1192"/>
      <point x="80" y="1184" type="curve" smooth="yes"/>
      <point x="80" y="698" type="line" smooth="yes"/>
      <point x="80" y="688"/>
      <point x="88" y="682"/>
      <point x="96" y="682" type="curve" smooth="yes"/>
      <point x="308" y="682" type="line" smooth="yes"/>
      <point x="416" y="682"/>
      <point x="504" y="594"/>
      <point x="504" y="486" type="curve" smooth="yes"/>
      <point x="504" y="196" type="line" smooth="yes"/>
      <point x="504" y="88"/>
      <point x="416" y="0"/>
      <point x="308" y="0" type="curve" smooth="yes"/>
      <point x="200" y="0"/>
      <point x="112" y="88"/>
      <point x="112" y="196" type="curve" smooth="yes"/>
      <point x="112" y="204"/>
      <point x="104" y="212"/>
      <point x="96" y="212" type="curve" smooth="yes"/>
      <point x="88" y="212"/>
      <point x="80" y="204"/>
      <point x="80" y="196" type="curve" smooth="yes"/>
      <point x="80" y="70"/>
      <point x="182" y="-32"/>
    </contour>
  </outline>
</glyph>
<glyph name="nine" format="1">
  <advance width="616.0"/>
  <unicode hex="0039"/>
  <outline>
    <contour>
      <point x="308" y="-32" type="curve" smooth="yes"/>
      <point x="434" y="-32"/>
      <point x="536" y="70"/>
      <point x="536" y="196" type="curve" smooth="yes"/>
      <point x="536" y="1004" type="line" smooth="yes"/>
      <point x="536" y="1130"/>
      <point x="434" y="1232"/>
      <point x="308" y="1232" type="curve" smooth="yes"/>
      <point x="182" y="1232"/>
      <point x="80" y="1130"/>
      <point x="80" y="1004" type="curve" smooth="yes"/>
      <point x="80" y="624" type="line" smooth="yes"/>
      <point x="80" y="498"/>
      <point x="182" y="396"/>
      <point x="308" y="396" type="curve" smooth="yes"/>
      <point x="392" y="396"/>
      <point x="464" y="440"/>
      <point x="504" y="508" type="curve"/>
      <point x="504" y="196" type="line" smooth="yes"/>
      <point x="504" y="88"/>
      <point x="416" y="0"/>
      <point x="308" y="0" type="curve" smooth="yes"/>
      <point x="200" y="0"/>
      <point x="112" y="88"/>
      <point x="112" y="196" type="curve" smooth="yes"/>
      <point x="112" y="204"/>
      <point x="104" y="212"/>
      <point x="96" y="212" type="curve" smooth="yes"/>
      <point x="88" y="212"/>
      <point x="80" y="204"/>
      <point x="80" y="196" type="curve" smooth="yes"/>
      <point x="80" y="70"/>
      <point x="182" y="-32"/>
    </contour>
    <contour>
      <point x="308" y="1200" type="curve" smooth="yes"/>
      <point x="416" y="1200"/>
      <point x="504" y="1112"/>
      <point x="504" y="1004" type="curve" smooth="yes"/>
      <point x="504" y="624" type="line" smooth="yes"/>
      <point x="504" y="516"/>
      <point x="416" y="428"/>
      <point x="308" y="428" type="curve" smooth="yes"/>
      <point x="200" y="428"/>
      <point x="112" y="516"/>
      <point x="112" y="624" type="curve" smooth="yes"/>
      <point x="112" y="1004" type="line" smooth="yes"/>
      <point x="112" y="1112"/>
      <point x="200" y="1200"/>
    </contour>
  </outline>
</glyph>
<glyph name="equal" format="1">
  <advance width="616.0"/>
  <unicode hex="003D"/>
  <outline>
    <contour>
      <point x="520" y="286" type="line"/>
      <point x="528" y="286"/>
      <point x="536" y="294"/>
      <point x="536" y="302" type="curve" smooth="yes"/>
      <point x="536" y="310"/>
      <point x="528" y="318"/>
      <point x="520" y="318" type="curve" smooth="yes"/>
      <point x="96" y="318" type="line" smooth="yes"/>
      <point x="88" y="318"/>
      <point x="80" y="310"/>
      <point x="80" y="302" type="curve" smooth="yes"/>
      <point x="80" y="294"/>
      <point x="88" y="286"/>
      <point x="96" y="286" type="curve" smooth="yes"/>
    </contour>
    <contour>
      <point x="520" y="526" type="line"/>
      <point x="528" y="526"/>
      <point x="536" y="534"/>
      <point x="536" y="542" type="curve" smooth="yes"/>
      <point x="536" y="550"/>
      <point x="528" y="558"/>
      <point x="520" y="558" type="curve" smooth="yes"/>
      <point x="96" y="558" type="line" smooth="yes"/>
      <point x="88" y="558"/>
      <point x="80" y="550"/>
      <point x="80" y="542" type="curve" smooth="yes"/>
      <point x="80" y="534"/>
      <point x="88" y="526"/>
      <point x="96" y="526" type="curve" smooth="yes"/>
    </contour>
  </outline>
</glyph>
<glyph name="question" format="1">
  <advance width="616.0"/>
  <unicode hex="003F"/>
  <outline>
    <contour>
      <point x="308" y="268" type="curve" smooth="yes"/>
      <point x="316" y="268"/>
      <point x="324" y="274"/>
      <point x="324" y="284" type="curve" smooth="yes"/>
      <point x="324" y="628" type="line"/>
      <point x="442" y="636"/>
      <point x="536" y="734"/>
      <point x="536" y="854" type="curve" smooth="yes"/>
      <point x="536" y="1004" type="line" smooth="yes"/>
      <point x="536" y="1130"/>
      <point x="434" y="1232"/>
      <point x="308" y="1232" type="curve" smooth="yes"/>
      <point x="182" y="1232"/>
      <point x="80" y="1130"/>
      <point x="80" y="1004" type="curve" smooth="yes"/>
      <point x="80" y="996"/>
      <point x="88" y="988"/>
      <point x="96" y="988" type="curve" smooth="yes"/>
      <point x="104" y="988"/>
      <point x="112" y="996"/>
      <point x="112" y="1004" type="curve" smooth="yes"/>
      <point x="112" y="1112"/>
      <point x="200" y="1200"/>
      <point x="308" y="1200" type="curve" smooth="yes"/>
      <point x="416" y="1200"/>
      <point x="504" y="1112"/>
      <point x="504" y="1004" type="curve" smooth="yes"/>
      <point x="504" y="854" type="line" smooth="yes"/>
      <point x="504" y="746"/>
      <point x="416" y="658"/>
      <point x="308" y="658" type="curve" smooth="yes"/>
      <point x="300" y="658"/>
      <point x="292" y="652"/>
      <point x="292" y="642" type="curve" smooth="yes"/>
      <point x="292" y="284" type="line" smooth="yes"/>
      <point x="292" y="274"/>
      <point x="300" y="268"/>
    </contour>
    <contour>
      <point x="308" y="-3" type="curve" smooth="yes"/>
      <point x="321" y="-3"/>
      <point x="332" y="7"/>
      <point x="332" y="20" type="curve" smooth="yes"/>
      <point x="332" y="33"/>
      <point x="321" y="44"/>
      <point x="308" y="44" type="curve" smooth="yes"/>
      <point x="295" y="44"/>
      <point x="284" y="33"/>
      <point x="284" y="20" type="curve" smooth="yes"/>
      <point x="284" y="7"/>
      <point x="295" y="-3"/>
    </contour>
  </outline>
</glyph>
<glyph name="at" format="1">
  <advance width="616.0"/>
  <unicode hex="0040"/>
  <outline>
    <contour>
      <point x="380" y="672" type="curve" smooth="yes"/>
      <point x="298" y="672"/>
      <point x="228" y="604"/>
      <point x="226" y="522" type="curve"/>
      <point x="226" y="376" type="line" smooth="yes"/>
      <point x="226" y="290"/>
      <point x="296" y="220"/>
      <point x="380" y="220" type="curve" smooth="yes"/>
      <point x="430" y="220"/>
      <point x="476" y="244"/>
      <point x="504" y="280" type="curve"/>
      <point x="504" y="196" type="line" smooth="yes"/>
      <point x="504" y="88"/>
      <point x="416" y="0"/>
      <point x="308" y="0" type="curve" smooth="yes"/>
      <point x="200" y="0"/>
      <point x="112" y="88"/>
      <point x="112" y="196" type="curve" smooth="yes"/>
      <point x="112" y="844" type="line" smooth="yes"/>
      <point x="112" y="952"/>
      <point x="200" y="1040"/>
      <point x="308" y="1040" type="curve" smooth="yes"/>
      <point x="416" y="1040"/>
      <point x="504" y="952"/>
      <point x="504" y="844" type="curve" smooth="yes"/>
      <point x="504" y="836"/>
      <point x="512" y="828"/>
      <point x="520" y="828" type="curve" smooth="yes"/>
      <point x="528" y="828"/>
      <point x="536" y="836"/>
      <point x="536" y="844" type="curve" smooth="yes"/>
      <point x="536" y="970"/>
      <point x="434" y="1072"/>
      <point x="308" y="1072" type="curve" smooth="yes"/>
      <point x="182" y="1072"/>
      <point x="80" y="970"/>
      <point x="80" y="844" type="curve" smooth="yes"/>
      <point x="80" y="196" type="line" smooth="yes"/>
      <point x="80" y="70"/>
      <point x="182" y="-32"/>
      <point x="308" y="-32" type="curve" smooth="yes"/>
      <point x="434" y="-32"/>
      <point x="536" y="70"/>
      <point x="536" y="196" type="curve" smooth="yes"/>
      <point x="536" y="516" type="line" smooth="yes"/>
      <point x="536" y="602"/>
      <point x="466" y="672"/>
    </contour>
    <contour>
      <point x="504" y="376" type="line"/>
      <point x="504" y="308"/>
      <point x="448" y="252"/>
      <point x="380" y="252" type="curve" smooth="yes"/>
      <point x="312" y="252"/>
      <point x="258" y="308"/>
      <point x="258" y="376" type="curve" smooth="yes"/>
      <point x="258" y="516" type="line" smooth="yes"/>
      <point x="258" y="584"/>
      <point x="312" y="640"/>
      <point x="380" y="640" type="curve" smooth="yes"/>
      <point x="448" y="640"/>
      <point x="504" y="584"/>
      <point x="504" y="516" type="curve" smooth="yes"/>
    </contour>
  </outline>
</glyph>
<glyph name="A" format="1">
  <advance width="1301"/>
  <unicode hex="0041"/>
  <outline>
    <contour>
      <point x="164" y="300" type="line" smooth="yes"/>
      <point x="155" y="300"/>
      <point x="148" y="293"/>
      <point x="148" y="284" type="curve" smooth="yes"/>
      <point x="148" y="275"/>
      <point x="155" y="268"/>
      <point x="164" y="268" type="curve" smooth="yes"/>
      <point x="1132" y="268" type="line" smooth="yes"/>
      <point x="1141" y="268"/>
      <point x="1148" y="275"/>
      <point x="1148" y="284" type="curve" smooth="yes"/>
      <point x="1148" y="293"/>
      <point x="1141" y="300"/>
      <point x="1132" y="300" type="curve" smooth="yes"/>
    </contour>
    <contour>
      <point x="1198" y="12" type="line" smooth="yes"/>
      <point x="1200" y="3"/>
      <point x="1209" y="-2"/>
      <point x="1217" y="1" type="curve" smooth="yes"/>
      <point x="1226" y="3"/>
      <point x="1231" y="12"/>
      <point x="1228" y="20" type="curve" smooth="yes"/>
      <point x="906" y="1204" type="line" smooth="yes"/>
      <point x="905" y="1211"/>
      <point x="898" y="1216"/>
      <point x="891" y="1216" type="curve" smooth="yes"/>
      <point x="410" y="1216" type="line" smooth="yes"/>
      <point x="403" y="1216"/>
      <point x="396" y="1211"/>
      <point x="395" y="1204" type="curve" smooth="yes"/>
      <point x="73" y="20" type="line" smooth="yes"/>
      <point x="70" y="12"/>
      <point x="75" y="3"/>
      <point x="84" y="1" type="curve" smooth="yes"/>
      <point x="92" y="-2"/>
      <point x="101" y="3"/>
      <point x="103" y="12" type="curve" smooth="yes"/>
      <point x="425" y="1196" type="line"/>
      <point x="410" y="1184" type="line"/>
      <point x="891" y="1184" type="line"/>
      <point x="876" y="1196" type="line"/>
    </contour>
  </outline>
</glyph>
<glyph name="B" format="1">
  <advance width="686.0"/>
  <unicode hex="0042"/>
  <outline>
    <contour>
      <point x="524" y="578" type="curve" smooth="yes"/>
      <point x="470" y="632"/>
      <point x="396" y="664"/>
      <point x="316" y="668" type="curve"/>
      <point x="400" y="718"/>
      <point x="456" y="818"/>
      <point x="456" y="926" type="curve" smooth="yes"/>
      <point x="456" y="938" type="line" smooth="yes"/>
      <point x="456" y="1090"/>
      <point x="346" y="1200"/>
      <point x="196" y="1200" type="curve" smooth="yes"/>
      <point x="96" y="1200" type="line" smooth="yes"/>
      <point x="88" y="1200"/>
      <point x="80" y="1192"/>
      <point x="80" y="1184" type="curve" smooth="yes"/>
      <point x="80" y="16" type="line" smooth="yes"/>
      <point x="80" y="8"/>
      <point x="88" y="0"/>
      <point x="96" y="0" type="curve" smooth="yes"/>
      <point x="294" y="0" type="line" smooth="yes"/>
      <point x="472" y="0"/>
      <point x="616" y="156"/>
      <point x="616" y="348" type="curve" smooth="yes"/>
      <point x="616" y="438"/>
      <point x="584" y="518"/>
    </contour>
    <contour>
      <point x="112" y="1168" type="line"/>
      <point x="196" y="1168" type="line" smooth="yes"/>
      <point x="328" y="1168"/>
      <point x="424" y="1070"/>
      <point x="424" y="938" type="curve" smooth="yes"/>
      <point x="424" y="926" type="line" smooth="yes"/>
      <point x="424" y="786"/>
      <point x="322" y="668"/>
      <point x="196" y="668" type="curve" smooth="yes"/>
      <point x="112" y="668" type="line"/>
    </contour>
    <contour>
      <point x="502" y="126" type="curve" smooth="yes"/>
      <point x="448" y="66"/>
      <point x="374" y="32"/>
      <point x="294" y="32" type="curve" smooth="yes"/>
      <point x="112" y="32" type="line"/>
      <point x="112" y="636" type="line"/>
      <point x="294" y="636" type="line" smooth="yes"/>
      <point x="466" y="636"/>
      <point x="584" y="510"/>
      <point x="584" y="348" type="curve" smooth="yes"/>
      <point x="584" y="266"/>
      <point x="554" y="186"/>
    </contour>
  </outline>
</glyph>
<glyph name="C" format="1">
  <advance width="1344"/>
  <unicode hex="0043"/>
  <outline>
    <contour>
      <point x="673" y="-32" type="curve" smooth="yes"/>
      <point x="845" y="-32"/>
      <point x="1000" y="42"/>
      <point x="1108" y="159" type="curve" smooth="yes"/>
      <point x="1114" y="166"/>
      <point x="1113" y="176"/>
      <point x="1107" y="182" type="curve" smooth="yes"/>
      <point x="1100" y="188"/>
      <point x="1090" y="187"/>
      <point x="1084" y="181" type="curve" smooth="yes"/>
      <point x="982" y="70"/>
      <point x="835" y="0"/>
      <point x="673" y="0" type="curve" smooth="yes"/>
      <point x="364" y="0"/>
      <point x="112" y="252"/>
      <point x="112" y="561" type="curve" smooth="yes"/>
      <point x="112" y="624" type="line" smooth="yes"/>
      <point x="112" y="932"/>
      <point x="364" y="1184"/>
      <point x="673" y="1184" type="curve" smooth="yes"/>
      <point x="834" y="1184"/>
      <point x="981" y="1115"/>
      <point x="1083" y="1004" type="curve" smooth="yes"/>
      <point x="1089" y="998"/>
      <point x="1099" y="997"/>
      <point x="1106" y="1003" type="curve" smooth="yes"/>
      <point x="1112" y="1009"/>
      <point x="1113" y="1019"/>
      <point x="1107" y="1026" type="curve" smooth="yes"/>
      <point x="999" y="1143"/>
      <point x="844" y="1216"/>
      <point x="673" y="1216" type="curve" smooth="yes"/>
      <point x="346" y="1216"/>
      <point x="80" y="950"/>
      <point x="80" y="624" type="curve" smooth="yes"/>
      <point x="80" y="561" type="line" smooth="yes"/>
      <point x="80" y="234"/>
      <point x="346" y="-32"/>
    </contour>
  </outline>
</glyph>
<glyph name="D" format="1">
  <advance width="1345.0"/>
  <unicode hex="0044"/>
  <outline>
    <contour>
      <point x="1265" y="608" type="line" smooth="yes"/>
      <point x="1265" y="934"/>
      <point x="999" y="1200"/>
      <point x="673" y="1200" type="curve" smooth="yes"/>
      <point x="98" y="1200" type="line" smooth="yes"/>
      <point x="89" y="1200"/>
      <point x="82" y="1193"/>
      <point x="82" y="1184" type="curve" smooth="yes"/>
      <point x="80" y="0" type="line" smooth="yes"/>
      <point x="80" y="-9"/>
      <point x="87" y="-16"/>
      <point x="96" y="-16" type="curve" smooth="yes"/>
      <point x="673" y="-16" type="line" smooth="yes"/>
      <point x="999" y="-16"/>
      <point x="1265" y="250"/>
      <point x="1265" y="577" type="curve" smooth="yes"/>
    </contour>
    <contour>
      <point x="1233" y="608" type="curve" smooth="yes"/>
      <point x="1233" y="577" type="line" smooth="yes"/>
      <point x="1233" y="268"/>
      <point x="981" y="16"/>
      <point x="673" y="16" type="curve" smooth="yes"/>
      <point x="96" y="16" type="line"/>
      <point x="112" y="0" type="line"/>
      <point x="114" y="1184" type="line"/>
      <point x="98" y="1168" type="line"/>
      <point x="673" y="1168" type="line" smooth="yes"/>
      <point x="981" y="1168"/>
      <point x="1233" y="916"/>
    </contour>
  </outline>
</glyph>
<glyph name="E" format="1">
  <advance width="1344.0"/>
  <unicode hex="0045"/>
  <outline>
    <contour>
      <point x="1248" y="0" type="line" smooth="yes"/>
      <point x="1257" y="0"/>
      <point x="1264" y="7"/>
      <point x="1264" y="16" type="curve" smooth="yes"/>
      <point x="1264" y="25"/>
      <point x="1257" y="32"/>
      <point x="1248" y="32" type="curve" smooth="yes"/>
      <point x="96" y="32" type="line"/>
      <point x="112" y="16" type="line"/>
      <point x="112" y="1184" type="line"/>
      <point x="96" y="1168" type="line"/>
      <point x="1248" y="1168" type="line" smooth="yes"/>
      <point x="1257" y="1168"/>
      <point x="1264" y="1175"/>
      <point x="1264" y="1184" type="curve" smooth="yes"/>
      <point x="1264" y="1193"/>
      <point x="1257" y="1200"/>
      <point x="1248" y="1200" type="curve" smooth="yes"/>
      <point x="96" y="1200" type="line" smooth="yes"/>
      <point x="87" y="1200"/>
      <point x="80" y="1193"/>
      <point x="80" y="1184" type="curve" smooth="yes"/>
      <point x="80" y="16" type="line" smooth="yes"/>
      <point x="80" y="7"/>
      <point x="87" y="0"/>
      <point x="96" y="0" type="curve" smooth="yes"/>
    </contour>
    <contour>
      <point x="99" y="563" type="line" smooth="yes"/>
      <point x="90" y="563"/>
      <point x="83" y="556"/>
      <point x="83" y="547" type="curve" smooth="yes"/>
      <point x="83" y="538"/>
      <point x="90" y="531"/>
      <point x="99" y="531" type="curve" smooth="yes"/>
      <point x="672" y="531" type="line" smooth="yes"/>
      <point x="681" y="531"/>
      <point x="688" y="538"/>
      <point x="688" y="547" type="curve" smooth="yes"/>
      <point x="688" y="556"/>
      <point x="681" y="563"/>
      <point x="672" y="563" type="curve" smooth="yes"/>
    </contour>
  </outline>
</glyph>
<glyph name="F" format="1">
  <advance width="632.0"/>
  <unicode hex="0046"/>
  <outline>
    <contour>
      <point x="536" y="1200" type="curve"/>
      <point x="96" y="1200" type="line" smooth="yes"/>
      <point x="88" y="1200"/>
      <point x="80" y="1192"/>
      <point x="80" y="1184" type="curve" smooth="yes"/>
      <point x="80" y="16" type="line" smooth="yes"/>
      <point x="80" y="8"/>
      <point x="88" y="0"/>
      <point x="96" y="0" type="curve" smooth="yes"/>
      <point x="104" y="0"/>
      <point x="112" y="8"/>
      <point x="112" y="16" type="curve" smooth="yes"/>
      <point x="112" y="530" type="line"/>
      <point x="316" y="530" type="line" smooth="yes"/>
      <point x="324" y="530"/>
      <point x="332" y="538"/>
      <point x="332" y="546" type="curve" smooth="yes"/>
      <point x="332" y="556"/>
      <point x="324" y="562"/>
      <point x="316" y="562" type="curve" smooth="yes"/>
      <point x="112" y="562" type="line"/>
      <point x="112" y="1168" type="line"/>
      <point x="536" y="1168" type="line" smooth="yes"/>
      <point x="544" y="1168"/>
      <point x="552" y="1176"/>
      <point x="552" y="1184" type="curve" smooth="yes"/>
      <point x="552" y="1192"/>
      <point x="544" y="1200"/>
    </contour>
  </outline>
</glyph>
<glyph name="L" format="1">
  <advance width="616.0"/>
  <unicode hex="004C"/>
  <outline>
    <contour>
      <point x="520" y="0" type="line"/>
      <point x="528" y="0"/>
      <point x="536" y="8"/>
      <point x="536" y="16" type="curve" smooth="yes"/>
      <point x="536" y="24"/>
      <point x="528" y="32"/>
      <point x="520" y="32" type="curve" smooth="yes"/>
      <point x="112" y="32" type="line"/>
      <point x="112" y="1184" type="line" smooth="yes"/>
      <point x="112" y="1192"/>
      <point x="104" y="1200"/>
      <point x="96" y="1200" type="curve" smooth="yes"/>
      <point x="88" y="1200"/>
      <point x="80" y="1192"/>
      <point x="80" y="1184" type="curve" smooth="yes"/>
      <point x="80" y="16" type="line" smooth="yes"/>
      <point x="80" y="8"/>
      <point x="88" y="0"/>
      <point x="96" y="0" type="curve" smooth="yes"/>
    </contour>
  </outline>
</glyph>
<glyph name="P" format="1">
  <advance width="686.0"/>
  <unicode hex="0050"/>
  <outline>
    <contour>
      <point x="526" y="1094" type="curve" smooth="yes"/>
      <point x="466" y="1162"/>
      <point x="384" y="1200"/>
      <point x="294" y="1200" type="curve" smooth="yes"/>
      <point x="96" y="1200" type="line" smooth="yes"/>
      <point x="88" y="1200"/>
      <point x="80" y="1192"/>
      <point x="80" y="1184" type="curve" smooth="yes"/>
      <point x="80" y="16" type="line" smooth="yes"/>
      <point x="80" y="8"/>
      <point x="88" y="0"/>
      <point x="96" y="0" type="curve" smooth="yes"/>
      <point x="104" y="0"/>
      <point x="112" y="8"/>
      <point x="112" y="16" type="curve" smooth="yes"/>
      <point x="112" y="530" type="line"/>
      <point x="294" y="530" type="line" smooth="yes"/>
      <point x="480" y="530"/>
      <point x="616" y="672"/>
      <point x="616" y="852" type="curve" smooth="yes"/>
      <point x="616" y="942"/>
      <point x="584" y="1028"/>
    </contour>
    <contour>
      <point x="502" y="644" type="curve" smooth="yes"/>
      <point x="450" y="592"/>
      <point x="376" y="562"/>
      <point x="294" y="562" type="curve" smooth="yes"/>
      <point x="112" y="562" type="line"/>
      <point x="112" y="1168" type="line"/>
      <point x="294" y="1168" type="line" smooth="yes"/>
      <point x="458" y="1168"/>
      <point x="584" y="1022"/>
      <point x="584" y="852" type="curve" smooth="yes"/>
      <point x="584" y="772"/>
      <point x="556" y="698"/>
    </contour>
  </outline>
</glyph>
<glyph name="Q" format="1">
  <advance width="616.0"/>
  <unicode hex="0051"/>
  <outline>
    <contour>
      <point x="540" y="-2" type="curve"/>
      <point x="484" y="52" type="line"/>
      <point x="516" y="92"/>
      <point x="536" y="142"/>
      <point x="536" y="196" type="curve" smooth="yes"/>
      <point x="536" y="1004" type="line" smooth="yes"/>
      <point x="536" y="1130"/>
      <point x="434" y="1232"/>
      <point x="308" y="1232" type="curve" smooth="yes"/>
      <point x="182" y="1232"/>
      <point x="80" y="1130"/>
      <point x="80" y="1004" type="curve" smooth="yes"/>
      <point x="80" y="196" type="line" smooth="yes"/>
      <point x="80" y="70"/>
      <point x="182" y="-32"/>
      <point x="308" y="-32" type="curve" smooth="yes"/>
      <point x="368" y="-32"/>
      <point x="422" y="-10"/>
      <point x="462" y="28" type="curve"/>
      <point x="516" y="-26" type="line" smooth="yes"/>
      <point x="520" y="-28"/>
      <point x="524" y="-30"/>
      <point x="528" y="-30" type="curve" smooth="yes"/>
      <point x="536" y="-30"/>
      <point x="544" y="-24"/>
      <point x="544" y="-16" type="curve" smooth="yes"/>
      <point x="544" y="-12"/>
      <point x="542" y="-6"/>
    </contour>
    <contour>
      <point x="308" y="0" type="curve" smooth="yes"/>
      <point x="200" y="0"/>
      <point x="112" y="88"/>
      <point x="112" y="196" type="curve" smooth="yes"/>
      <point x="112" y="1004" type="line" smooth="yes"/>
      <point x="112" y="1112"/>
      <point x="200" y="1200"/>
      <point x="308" y="1200" type="curve" smooth="yes"/>
      <point x="416" y="1200"/>
      <point x="504" y="1112"/>
      <point x="504" y="1004" type="curve" smooth="yes"/>
      <point x="504" y="196" type="line" smooth="yes"/>
      <point x="504" y="150"/>
      <point x="488" y="108"/>
      <point x="462" y="74" type="curve"/>
      <point x="384" y="152" type="line" smooth="yes"/>
      <point x="380" y="154"/>
      <point x="376" y="156"/>
      <point x="372" y="156" type="curve" smooth="yes"/>
      <point x="364" y="156"/>
      <point x="356" y="148"/>
      <point x="356" y="140" type="curve" smooth="yes"/>
      <point x="356" y="136"/>
      <point x="358" y="132"/>
      <point x="362" y="130" type="curve" smooth="yes"/>
      <point x="440" y="52" type="line"/>
      <point x="406" y="20"/>
      <point x="358" y="0"/>
    </contour>
  </outline>
</glyph>
<glyph name="R" format="1">
  <advance width="690.0"/>
  <unicode hex="0052"/>
  <outline>
    <contour>
      <point x="628" y="24" type="curve"/>
      <point x="334" y="532" type="line"/>
      <point x="502" y="554"/>
      <point x="616" y="686"/>
      <point x="616" y="852" type="curve" smooth="yes"/>
      <point x="616" y="1038"/>
      <point x="476" y="1200"/>
      <point x="294" y="1200" type="curve" smooth="yes"/>
      <point x="96" y="1200" type="line" smooth="yes"/>
      <point x="88" y="1200"/>
      <point x="80" y="1192"/>
      <point x="80" y="1184" type="curve" smooth="yes"/>
      <point x="80" y="16" type="line" smooth="yes"/>
      <point x="80" y="8"/>
      <point x="88" y="0"/>
      <point x="96" y="0" type="curve" smooth="yes"/>
      <point x="104" y="0"/>
      <point x="112" y="8"/>
      <point x="112" y="16" type="curve" smooth="yes"/>
      <point x="112" y="530" type="line"/>
      <point x="294" y="530" type="line"/>
      <point x="296" y="530"/>
      <point x="298" y="530"/>
      <point x="298" y="530" type="curve"/>
      <point x="600" y="8" type="line" smooth="yes"/>
      <point x="602" y="2"/>
      <point x="608" y="0"/>
      <point x="614" y="0" type="curve" smooth="yes"/>
      <point x="624" y="0"/>
      <point x="630" y="6"/>
      <point x="630" y="16" type="curve" smooth="yes"/>
      <point x="630" y="18"/>
      <point x="630" y="22"/>
    </contour>
    <contour>
      <point x="112" y="562" type="line"/>
      <point x="112" y="1168" type="line"/>
      <point x="294" y="1168" type="line" smooth="yes"/>
      <point x="458" y="1168"/>
      <point x="584" y="1022"/>
      <point x="584" y="852" type="curve" smooth="yes"/>
      <point x="584" y="690"/>
      <point x="466" y="562"/>
      <point x="294" y="562" type="curve" smooth="yes"/>
      <point x="196" y="562" type="line"/>
    </contour>
  </outline>
</glyph>
<glyph name="S" format="1">
  <advance width="616.0"/>
  <unicode hex="0053"/>
  <outline>
    <contour>
      <point x="308" y="-32" type="curve" smooth="yes"/>
      <point x="434" y="-32"/>
      <point x="536" y="70"/>
      <point x="536" y="196" type="curve" smooth="yes"/>
      <point x="536" y="464" type="line" smooth="yes"/>
      <point x="536" y="590"/>
      <point x="434" y="692"/>
      <point x="308" y="692" type="curve" smooth="yes"/>
      <point x="200" y="692"/>
      <point x="112" y="780"/>
      <point x="112" y="888" type="curve" smooth="yes"/>
      <point x="112" y="1004" type="line" smooth="yes"/>
      <point x="112" y="1112"/>
      <point x="200" y="1200"/>
      <point x="308" y="1200" type="curve" smooth="yes"/>
      <point x="416" y="1200"/>
      <point x="504" y="1112"/>
      <point x="504" y="1004" type="curve" smooth="yes"/>
      <point x="504" y="996"/>
      <point x="512" y="988"/>
      <point x="520" y="988" type="curve" smooth="yes"/>
      <point x="528" y="988"/>
      <point x="536" y="996"/>
      <point x="536" y="1004" type="curve" smooth="yes"/>
      <point x="536" y="1130"/>
      <point x="434" y="1232"/>
      <point x="308" y="1232" type="curve" smooth="yes"/>
      <point x="182" y="1232"/>
      <point x="80" y="1130"/>
      <point x="80" y="1004" type="curve" smooth="yes"/>
      <point x="80" y="888" type="line" smooth="yes"/>
      <point x="80" y="764"/>
      <point x="182" y="660"/>
      <point x="308" y="660" type="curve" smooth="yes"/>
      <point x="416" y="660"/>
      <point x="504" y="574"/>
      <point x="504" y="464" type="curve" smooth="yes"/>
      <point x="504" y="196" type="line" smooth="yes"/>
      <point x="504" y="88"/>
      <point x="416" y="0"/>
      <point x="308" y="0" type="curve" smooth="yes"/>
      <point x="200" y="0"/>
      <point x="112" y="88"/>
      <point x="112" y="196" type="curve" smooth="yes"/>
      <point x="112" y="204"/>
      <point x="104" y="212"/>
      <point x="96" y="212" type="curve" smooth="yes"/>
      <point x="88" y="212"/>
      <point x="80" y="204"/>
      <point x="80" y="196" type="curve" smooth="yes"/>
      <point x="80" y="70"/>
      <point x="182" y="-32"/>
    </contour>
  </outline>
</glyph>
<glyph name="T" format="1">
  <advance width="1344"/>
  <unicode hex="0054"/>
  <outline>
    <contour>
      <point x="96" y="1200" type="curve" smooth="yes"/>
      <point x="1248" y="1200" type="line" smooth="yes"/>
      <point x="1257" y="1200"/>
      <point x="1264" y="1193"/>
      <point x="1264" y="1184" type="curve" smooth="yes"/>
      <point x="1264" y="1175"/>
      <point x="1257" y="1168"/>
      <point x="1248" y="1168" type="curve" smooth="yes"/>
      <point x="96" y="1168" type="line" smooth="yes"/>
      <point x="87" y="1168"/>
      <point x="80" y="1175"/>
      <point x="80" y="1184" type="curve" smooth="yes"/>
      <point x="80" y="1193"/>
      <point x="87" y="1200"/>
    </contour>
    <contour>
      <point x="688" y="1174" type="curve" smooth="yes"/>
      <point x="688" y="16" type="line" smooth="yes"/>
      <point x="688" y="7"/>
      <point x="681" y="0"/>
      <point x="672" y="0" type="curve" smooth="yes"/>
      <point x="663" y="0"/>
      <point x="656" y="7"/>
      <point x="656" y="16" type="curve" smooth="yes"/>
      <point x="656" y="1174" type="line" smooth="yes"/>
      <point x="656" y="1183"/>
      <point x="663" y="1190"/>
      <point x="672" y="1190" type="curve" smooth="yes"/>
      <point x="681" y="1190"/>
      <point x="688" y="1183"/>
    </contour>
  </outline>
</glyph>
<glyph name="V" format="1">
  <advance width="620.0"/>
  <unicode hex="0056"/>
  <outline>
    <contour>
      <point x="310" y="-32" type="curve" smooth="yes"/>
      <point x="318" y="-32"/>
      <point x="324" y="-26"/>
      <point x="326" y="-18" type="curve" smooth="yes"/>
      <point x="538" y="1182" type="line"/>
      <point x="538" y="1184" type="line" smooth="yes"/>
      <point x="538" y="1192"/>
      <point x="530" y="1200"/>
      <point x="520" y="1200" type="curve" smooth="yes"/>
      <point x="514" y="1200"/>
      <point x="508" y="1194"/>
      <point x="506" y="1186" type="curve" smooth="yes"/>
      <point x="310" y="76" type="line"/>
      <point x="114" y="1186" type="line" smooth="yes"/>
      <point x="112" y="1194"/>
      <point x="106" y="1200"/>
      <point x="98" y="1200" type="curve" smooth="yes"/>
      <point x="88" y="1200"/>
      <point x="82" y="1192"/>
      <point x="82" y="1184" type="curve"/>
      <point x="82" y="1182" type="line"/>
      <point x="294" y="-18" type="line" smooth="yes"/>
      <point x="296" y="-26"/>
      <point x="302" y="-32"/>
    </contour>
  </outline>
</glyph>
<glyph name="W" format="1">
  <advance width="1350.88"/>
  <unicode hex="0057"/>
  <outline>
    <contour>
      <point x="1280" y="1179" type="line" smooth="yes"/>
      <point x="1283" y="1188"/>
      <point x="1278" y="1197"/>
      <point x="1270" y="1199" type="curve" smooth="yes"/>
      <point x="1261" y="1202"/>
      <point x="1252" y="1197"/>
      <point x="1250" y="1189" type="curve" smooth="yes"/>
      <point x="897" y="5" type="line"/>
      <point x="927" y="6" type="line"/>
      <point x="690" y="639" type="line" smooth="yes"/>
      <point x="684" y="654"/>
      <point x="666" y="654"/>
      <point x="660" y="639" type="curve" smooth="yes"/>
      <point x="424" y="6" type="line"/>
      <point x="454" y="5" type="line"/>
      <point x="101" y="1189" type="line" smooth="yes"/>
      <point x="99" y="1197"/>
      <point x="90" y="1202"/>
      <point x="81" y="1199" type="curve" smooth="yes"/>
      <point x="73" y="1197"/>
      <point x="68" y="1188"/>
      <point x="71" y="1179" type="curve" smooth="yes"/>
      <point x="424" y="-5" type="line" smooth="yes"/>
      <point x="428" y="-21"/>
      <point x="448" y="-21"/>
      <point x="454" y="-6" type="curve" smooth="yes"/>
      <point x="690" y="627" type="line"/>
      <point x="660" y="627" type="line"/>
      <point x="897" y="-6" type="line" smooth="yes"/>
      <point x="903" y="-21"/>
      <point x="923" y="-21"/>
      <point x="927" y="-5" type="curve" smooth="yes"/>
    </contour>
  </outline>
</glyph>
<glyph name="X" format="1">
  <advance width="618.0"/>
  <unicode hex="0058"/>
  <outline>
    <contour>
      <point x="326" y="600" type="line"/>
      <point x="536" y="1178" type="line"/>
      <point x="536" y="1180"/>
      <point x="538" y="1182"/>
      <point x="538" y="1184" type="curve" smooth="yes"/>
      <point x="538" y="1194"/>
      <point x="530" y="1200"/>
      <point x="522" y="1200" type="curve" smooth="yes"/>
      <point x="516" y="1200"/>
      <point x="508" y="1196"/>
      <point x="506" y="1190" type="curve" smooth="yes"/>
      <point x="310" y="646" type="line"/>
      <point x="112" y="1190" type="line" smooth="yes"/>
      <point x="110" y="1196"/>
      <point x="104" y="1200"/>
      <point x="98" y="1200" type="curve" smooth="yes"/>
      <point x="88" y="1200"/>
      <point x="82" y="1192"/>
      <point x="82" y="1182" type="curve" smooth="yes"/>
      <point x="82" y="1180"/>
      <point x="82" y="1180"/>
      <point x="82" y="1178" type="curve"/>
      <point x="292" y="600" type="line"/>
      <point x="82" y="22" type="line"/>
      <point x="82" y="20"/>
      <point x="82" y="18"/>
      <point x="82" y="18" type="curve"/>
      <point x="82" y="8"/>
      <point x="88" y="0"/>
      <point x="98" y="0" type="curve" smooth="yes"/>
      <point x="104" y="0"/>
      <point x="110" y="4"/>
      <point x="112" y="10" type="curve" smooth="yes"/>
      <point x="310" y="554" type="line"/>
      <point x="506" y="10" type="line"/>
      <point x="512" y="0"/>
      <point x="518" y="0"/>
      <point x="528" y="0" type="curve"/>
      <point x="534" y="2"/>
      <point x="538" y="10"/>
      <point x="538" y="16" type="curve" smooth="yes"/>
      <point x="538" y="18"/>
      <point x="536" y="20"/>
      <point x="536" y="22" type="curve"/>
    </contour>
  </outline>
</glyph>
<glyph name="Y" format="1">
  <advance width="1328"/>
  <unicode hex="0059"/>
  <outline>
    <contour>
      <point x="1244" y="1173" type="curve" smooth="yes"/>
      <point x="676" y="589" type="line" smooth="yes"/>
      <point x="670" y="582"/>
      <point x="660" y="582"/>
      <point x="654" y="589" type="curve" smooth="yes"/>
      <point x="86" y="1173" type="line" smooth="yes"/>
      <point x="80" y="1179"/>
      <point x="80" y="1189"/>
      <point x="86" y="1195" type="curve" smooth="yes"/>
      <point x="92" y="1201"/>
      <point x="102" y="1201"/>
      <point x="108" y="1195" type="curve" smooth="yes"/>
      <point x="676" y="611" type="line"/>
      <point x="654" y="611" type="line"/>
      <point x="1222" y="1195" type="line" smooth="yes"/>
      <point x="1228" y="1201"/>
      <point x="1238" y="1201"/>
      <point x="1244" y="1195" type="curve" smooth="yes"/>
      <point x="1250" y="1189"/>
      <point x="1250" y="1179"/>
    </contour>
    <contour>
      <point x="649" y="16" type="curve" smooth="yes"/>
      <point x="649" y="600" type="line" smooth="yes"/>
      <point x="649" y="609"/>
      <point x="656" y="616"/>
      <point x="665" y="616" type="curve" smooth="yes"/>
      <point x="674" y="616"/>
      <point x="681" y="609"/>
      <point x="681" y="600" type="curve" smooth="yes"/>
      <point x="681" y="16" type="line" smooth="yes"/>
      <point x="681" y="7"/>
      <point x="674" y="0"/>
      <point x="665" y="0" type="curve" smooth="yes"/>
      <point x="656" y="0"/>
      <point x="649" y="7"/>
    </contour>
  </outline>
</glyph>
<glyph name="Z" format="1">
  <advance width="616.0"/>
  <unicode hex="005A"/>
  <outline>
    <contour>
      <point x="520" y="0" type="line"/>
      <point x="528" y="0"/>
      <point x="536" y="8"/>
      <point x="536" y="16" type="curve" smooth="yes"/>
      <point x="536" y="24"/>
      <point x="528" y="32"/>
      <point x="520" y="32" type="curve" smooth="yes"/>
      <point x="118" y="32" type="line"/>
      <point x="534" y="1178" type="line"/>
      <point x="534" y="1180"/>
      <point x="536" y="1184"/>
      <point x="536" y="1186" type="curve" smooth="yes"/>
      <point x="536" y="1196"/>
      <point x="528" y="1200"/>
      <point x="520" y="1200" type="curve" smooth="yes"/>
      <point x="96" y="1200" type="line" smooth="yes"/>
      <point x="88" y="1200"/>
      <point x="80" y="1192"/>
      <point x="80" y="1184" type="curve" smooth="yes"/>
      <point x="80" y="1176"/>
      <point x="88" y="1168"/>
      <point x="96" y="1168" type="curve" smooth="yes"/>
      <point x="498" y="1168" type="line"/>
      <point x="80" y="22" type="line"/>
      <point x="80" y="8"/>
      <point x="82" y="0"/>
      <point x="96" y="0" type="curve" smooth="yes"/>
    </contour>
  </outline>
</glyph>
<glyph name="bracketleft" format="1">
  <advance width="384.0"/>
  <unicode hex="005B"/>
  <outline>
    <contour>
      <point x="308" y="-32" type="line"/>
      <point x="316" y="-32"/>
      <point x="324" y="-24"/>
      <point x="324" y="-16" type="curve" smooth="yes"/>
      <point x="324" y="-8"/>
      <point x="316" y="0"/>
      <point x="308" y="0" type="curve" smooth="yes"/>
      <point x="112" y="0" type="line"/>
      <point x="112" y="1200" type="line"/>
      <point x="308" y="1200" type="line" smooth="yes"/>
      <point x="316" y="1200"/>
      <point x="324" y="1208"/>
      <point x="324" y="1216" type="curve" smooth="yes"/>
      <point x="324" y="1224"/>
      <point x="316" y="1232"/>
      <point x="308" y="1232" type="curve" smooth="yes"/>
      <point x="96" y="1232" type="line" smooth="yes"/>
      <point x="88" y="1232"/>
      <point x="80" y="1224"/>
      <point x="80" y="1216" type="curve" smooth="yes"/>
      <point x="80" y="-16" type="line" smooth="yes"/>
      <point x="80" y="-24"/>
      <point x="88" y="-32"/>
      <point x="96" y="-32" type="curve" smooth="yes"/>
    </contour>
  </outline>
</glyph>
<glyph name="backslash" format="1">
  <advance width="408.0"/>
  <unicode hex="005C"/>
  <outline>
    <contour>
      <point x="310" y="-16" type="curve" smooth="yes"/>
      <point x="320" y="-16"/>
      <point x="326" y="-8"/>
      <point x="326" y="-2" type="curve" smooth="yes"/>
      <point x="326" y="0"/>
      <point x="326" y="0"/>
      <point x="326" y="2" type="curve"/>
      <point x="114" y="1202" type="line" smooth="yes"/>
      <point x="113" y="1210"/>
      <point x="106" y="1216"/>
      <point x="98" y="1216" type="curve" smooth="yes"/>
      <point x="88" y="1216"/>
      <point x="82" y="1208"/>
      <point x="82" y="1200" type="curve"/>
      <point x="82" y="1198" type="line"/>
      <point x="294" y="-2" type="line" smooth="yes"/>
      <point x="296" y="-10"/>
      <point x="302" y="-16"/>
    </contour>
  </outline>
</glyph>
<glyph name="bracketright" format="1">
  <advance width="384.0"/>
  <unicode hex="005D"/>
  <outline>
    <contour>
      <point x="284" y="-32" type="line"/>
      <point x="292" y="-32"/>
      <point x="300" y="-24"/>
      <point x="300" y="-16" type="curve" smooth="yes"/>
      <point x="300" y="1216" type="line" smooth="yes"/>
      <point x="300" y="1224"/>
      <point x="292" y="1232"/>
      <point x="284" y="1232" type="curve" smooth="yes"/>
      <point x="72" y="1232" type="line" smooth="yes"/>
      <point x="64" y="1232"/>
      <point x="56" y="1224"/>
      <point x="56" y="1216" type="curve" smooth="yes"/>
      <point x="56" y="1208"/>
      <point x="64" y="1200"/>
      <point x="72" y="1200" type="curve" smooth="yes"/>
      <point x="268" y="1200" type="line"/>
      <point x="268" y="0" type="line"/>
      <point x="72" y="0" type="line" smooth="yes"/>
      <point x="64" y="0"/>
      <point x="56" y="-8"/>
      <point x="56" y="-16" type="curve" smooth="yes"/>
      <point x="56" y="-24"/>
      <point x="64" y="-32"/>
      <point x="72" y="-32" type="curve" smooth="yes"/>
    </contour>
  </outline>
</glyph>
<glyph name="asciicircum" format="1">
  <advance width="624.0"/>
  <unicode hex="005E"/>
  <outline>
    <contour>
      <point x="444" y="1200" type="curve" smooth="yes"/>
      <point x="452" y="1200"/>
      <point x="460" y="1206"/>
      <point x="460" y="1214" type="curve" smooth="yes"/>
      <point x="460" y="1218"/>
      <point x="458" y="1224"/>
      <point x="456" y="1228" type="curve"/>
      <point x="324" y="1358" type="line" smooth="yes"/>
      <point x="320" y="1362"/>
      <point x="316" y="1364"/>
      <point x="312" y="1364" type="curve" smooth="yes"/>
      <point x="308" y="1364"/>
      <point x="304" y="1362"/>
      <point x="300" y="1358" type="curve" smooth="yes"/>
      <point x="168" y="1228" type="line" smooth="yes"/>
      <point x="164" y="1224"/>
      <point x="164" y="1218"/>
      <point x="164" y="1214" type="curve" smooth="yes"/>
      <point x="164" y="1204"/>
      <point x="172" y="1200"/>
      <point x="180" y="1200" type="curve" smooth="yes"/>
      <point x="184" y="1200"/>
      <point x="188" y="1200"/>
      <point x="192" y="1204" type="curve" smooth="yes"/>
      <point x="312" y="1326" type="line"/>
      <point x="432" y="1204" type="line"/>
      <point x="436" y="1202"/>
      <point x="440" y="1200"/>
    </contour>
  </outline>
</glyph>
<glyph name="underscore" format="1">
  <advance width="616.0"/>
  <unicode hex="005F"/>
  <outline>
    <contour>
      <point x="520" y="-16" type="line"/>
      <point x="528" y="-16"/>
      <point x="536" y="-8"/>
      <point x="536" y="0" type="curve" smooth="yes"/>
      <point x="536" y="8"/>
      <point x="528" y="16"/>
      <point x="520" y="16" type="curve" smooth="yes"/>
      <point x="96" y="16" type="line" smooth="yes"/>
      <point x="88" y="16"/>
      <point x="80" y="8"/>
      <point x="80" y="0" type="curve" smooth="yes"/>
      <point x="80" y="-8"/>
      <point x="88" y="-16"/>
      <point x="96" y="-16" type="curve" smooth="yes"/>
    </contour>
  </outline>
</glyph>
<glyph name="a" format="1">
  <advance width="620.0"/>
  <unicode hex="0061"/>
  <outline>
    <contour>
      <point x="474" y="798" type="curve" smooth="yes"/>
      <point x="432" y="842"/>
      <point x="374" y="868"/>
      <point x="312" y="868" type="curve" smooth="yes"/>
      <point x="186" y="868"/>
      <point x="84" y="766"/>
      <point x="84" y="640" type="curve" smooth="yes"/>
      <point x="84" y="632"/>
      <point x="92" y="624"/>
      <point x="100" y="624" type="curve" smooth="yes"/>
      <point x="108" y="624"/>
      <point x="116" y="632"/>
      <point x="116" y="640" type="curve" smooth="yes"/>
      <point x="116" y="748"/>
      <point x="204" y="836"/>
      <point x="312" y="836" type="curve" smooth="yes"/>
      <point x="366" y="836"/>
      <point x="414" y="814"/>
      <point x="450" y="776" type="curve" smooth="yes"/>
      <point x="488" y="736"/>
      <point x="508" y="678"/>
      <point x="508" y="614" type="curve" smooth="yes"/>
      <point x="508" y="440" type="line"/>
      <point x="468" y="508"/>
      <point x="396" y="552"/>
      <point x="312" y="552" type="curve" smooth="yes"/>
      <point x="186" y="552"/>
      <point x="84" y="450"/>
      <point x="84" y="324" type="curve" smooth="yes"/>
      <point x="84" y="212" type="line" smooth="yes"/>
      <point x="84" y="86"/>
      <point x="186" y="-16"/>
      <point x="312" y="-16" type="curve" smooth="yes"/>
      <point x="372" y="-16"/>
      <point x="428" y="6"/>
      <point x="472" y="48" type="curve" smooth="yes"/>
      <point x="486" y="60"/>
      <point x="498" y="74"/>
      <point x="508" y="88" type="curve"/>
      <point x="508" y="32" type="line" smooth="yes"/>
      <point x="508" y="24"/>
      <point x="516" y="16"/>
      <point x="524" y="16" type="curve" smooth="yes"/>
      <point x="532" y="16"/>
      <point x="540" y="24"/>
      <point x="540" y="32" type="curve" smooth="yes"/>
      <point x="540" y="186" type="line" smooth="yes"/>
      <point x="540" y="186" type="line" smooth="yes"/>
      <point x="540" y="614" type="line" smooth="yes"/>
      <point x="540" y="686"/>
      <point x="516" y="752"/>
    </contour>
    <contour>
      <point x="508" y="186" type="line" smooth="yes"/>
      <point x="508" y="146"/>
      <point x="488" y="104"/>
      <point x="452" y="70" type="curve" smooth="yes"/>
      <point x="412" y="36"/>
      <point x="364" y="16"/>
      <point x="312" y="16" type="curve" smooth="yes"/>
      <point x="204" y="16"/>
      <point x="116" y="104"/>
      <point x="116" y="212" type="curve" smooth="yes"/>
      <point x="116" y="324" type="line" smooth="yes"/>
      <point x="116" y="432"/>
      <point x="204" y="520"/>
      <point x="312" y="520" type="curve" smooth="yes"/>
      <point x="420" y="520"/>
      <point x="508" y="432"/>
      <point x="508" y="324" type="curve"/>
    </contour>
  </outline>
</glyph>
<glyph name="c" format="1">
  <advance width="1094.5"/>
  <unicode hex="0063"/>
  <outline>
    <contour>
      <point x="877" y="122" type="curve" smooth="yes"/>
      <point x="883" y="128"/>
      <point x="883" y="138"/>
      <point x="877" y="144" type="curve" smooth="yes"/>
      <point x="871" y="150"/>
      <point x="861" y="150"/>
      <point x="855" y="144" type="curve" smooth="yes"/>
      <point x="776" y="65"/>
      <point x="667" y="16"/>
      <point x="547" y="16" type="curve" smooth="yes"/>
      <point x="308" y="16"/>
      <point x="112" y="212"/>
      <point x="112" y="451" type="curve" smooth="yes"/>
      <point x="112" y="482" type="line" smooth="yes"/>
      <point x="112" y="721"/>
      <point x="308" y="917"/>
      <point x="547" y="917" type="curve" smooth="yes"/>
      <point x="667" y="917"/>
      <point x="776" y="868"/>
      <point x="855" y="789" type="curve" smooth="yes"/>
      <point x="861" y="783"/>
      <point x="871" y="783"/>
      <point x="877" y="789" type="curve" smooth="yes"/>
      <point x="883" y="795"/>
      <point x="883" y="805"/>
      <point x="877" y="811" type="curve" smooth="yes"/>
      <point x="792" y="896"/>
      <point x="675" y="949"/>
      <point x="547" y="949" type="curve" smooth="yes"/>
      <point x="290" y="949"/>
      <point x="80" y="739"/>
      <point x="80" y="482" type="curve" smooth="yes"/>
      <point x="80" y="451" type="line" smooth="yes"/>
      <point x="80" y="194"/>
      <point x="290" y="-16"/>
      <point x="547" y="-16" type="curve" smooth="yes"/>
      <point x="675" y="-16"/>
      <point x="792" y="37"/>
    </contour>
  </outline>
</glyph>
<glyph name="e" format="1">
  <advance width="616.0"/>
  <unicode hex="0065"/>
  <outline>
    <contour>
      <point x="520" y="418" type="line" smooth="yes"/>
      <point x="528" y="418"/>
      <point x="536" y="426"/>
      <point x="536" y="434" type="curve" smooth="yes"/>
      <point x="536" y="640" type="line" smooth="yes"/>
      <point x="536" y="766"/>
      <point x="434" y="868"/>
      <point x="308" y="868" type="curve" smooth="yes"/>
      <point x="182" y="868"/>
      <point x="80" y="766"/>
      <point x="80" y="640" type="curve" smooth="yes"/>
      <point x="80" y="212" type="line" smooth="yes"/>
      <point x="80" y="86"/>
      <point x="182" y="-16"/>
      <point x="308" y="-16" type="curve" smooth="yes"/>
      <point x="434" y="-16"/>
      <point x="536" y="86"/>
      <point x="536" y="212" type="curve" smooth="yes"/>
      <point x="536" y="220"/>
      <point x="528" y="228"/>
      <point x="520" y="228" type="curve" smooth="yes"/>
      <point x="512" y="228"/>
      <point x="504" y="220"/>
      <point x="504" y="212" type="curve" smooth="yes"/>
      <point x="504" y="104"/>
      <point x="416" y="16"/>
      <point x="308" y="16" type="curve" smooth="yes"/>
      <point x="200" y="16"/>
      <point x="112" y="104"/>
      <point x="112" y="212" type="curve" smooth="yes"/>
      <point x="112" y="418" type="line"/>
    </contour>
    <contour>
      <point x="112" y="640" type="line" smooth="yes"/>
      <point x="112" y="748"/>
      <point x="200" y="836"/>
      <point x="308" y="836" type="curve" smooth="yes"/>
      <point x="416" y="836"/>
      <point x="504" y="748"/>
      <point x="504" y="640" type="curve" smooth="yes"/>
      <point x="504" y="450" type="line"/>
      <point x="112" y="450" type="line"/>
    </contour>
  </outline>
</glyph>
<glyph name="g" format="1">
  <advance width="1094"/>
  <unicode hex="0067"/>
  <outline>
    <contour>
      <point x="112" y="-13" type="curve" smooth="yes"/>
      <point x="112" y="-4"/>
      <point x="105" y="3"/>
      <point x="96" y="3" type="curve" smooth="yes"/>
      <point x="87" y="3"/>
      <point x="80" y="-4"/>
      <point x="80" y="-13" type="curve" smooth="yes"/>
      <point x="80" y="-270"/>
      <point x="290" y="-480"/>
      <point x="547" y="-480" type="curve" smooth="yes"/>
      <point x="804" y="-480"/>
      <point x="1014" y="-270"/>
      <point x="1014" y="-13" type="curve" smooth="yes"/>
      <point x="1014" y="482" type="line" smooth="yes"/>
      <point x="1014" y="739"/>
      <point x="804" y="949"/>
      <point x="547" y="949" type="curve" smooth="yes"/>
      <point x="290" y="949"/>
      <point x="80" y="739"/>
      <point x="80" y="482" type="curve" smooth="yes"/>
      <point x="80" y="451" type="line" smooth="yes"/>
      <point x="80" y="194"/>
      <point x="290" y="-16"/>
      <point x="547" y="-16" type="curve" smooth="yes"/>
      <point x="804" y="-16"/>
      <point x="1014" y="194"/>
      <point x="1014" y="451" type="curve" smooth="yes"/>
      <point x="1014" y="460"/>
      <point x="1007" y="467"/>
      <point x="998" y="467" type="curve" smooth="yes"/>
      <point x="989" y="467"/>
      <point x="982" y="460"/>
      <point x="982" y="451" type="curve" smooth="yes"/>
      <point x="982" y="212"/>
      <point x="786" y="16"/>
      <point x="547" y="16" type="curve" smooth="yes"/>
      <point x="308" y="16"/>
      <point x="112" y="212"/>
      <point x="112" y="451" type="curve" smooth="yes"/>
      <point x="112" y="482" type="line" smooth="yes"/>
      <point x="112" y="721"/>
      <point x="308" y="917"/>
      <point x="547" y="917" type="curve" smooth="yes"/>
      <point x="786" y="917"/>
      <point x="982" y="721"/>
      <point x="982" y="482" type="curve" smooth="yes"/>
      <point x="982" y="-13" type="line" smooth="yes"/>
      <point x="982" y="-252"/>
      <point x="786" y="-448"/>
      <point x="547" y="-448" type="curve" smooth="yes"/>
      <point x="308" y="-448"/>
      <point x="112" y="-252"/>
    </contour>
  </outline>
</glyph>
<glyph name="l" format="1">
  <advance width="372"/>
  <unicode hex="006C"/>
  <outline>
    <contour>
      <point x="186" y="0" type="curve" smooth="yes"/>
      <point x="194" y="0"/>
      <point x="202" y="8"/>
      <point x="202" y="16" type="curve" smooth="yes"/>
      <point x="202" y="1216" type="line" smooth="yes"/>
      <point x="202" y="1224"/>
      <point x="194" y="1232"/>
      <point x="186" y="1232" type="curve" smooth="yes"/>
      <point x="178" y="1232"/>
      <point x="170" y="1224"/>
      <point x="170" y="1216" type="curve" smooth="yes"/>
      <point x="170" y="16" type="line" smooth="yes"/>
      <point x="170" y="8"/>
      <point x="178" y="0"/>
    </contour>
  </outline>
</glyph>
<glyph name="m" format="1">
  <advance width="1396"/>
  <unicode hex="006D"/>
  <outline>
    <contour>
      <point x="112" y="820" type="line" smooth="yes"/>
      <point x="112" y="829"/>
      <point x="105" y="836"/>
      <point x="96" y="836" type="curve" smooth="yes"/>
      <point x="87" y="836"/>
      <point x="80" y="829"/>
      <point x="80" y="820" type="curve" smooth="yes"/>
      <point x="80" y="16" type="line" smooth="yes"/>
      <point x="80" y="7"/>
      <point x="87" y="0"/>
      <point x="96" y="0" type="curve" smooth="yes"/>
      <point x="105" y="0"/>
      <point x="112" y="7"/>
      <point x="112" y="16" type="curve" smooth="yes"/>
    </contour>
    <contour>
      <point x="693" y="713" type="curve" smooth="yes"/>
      <point x="690" y="705"/>
      <point x="696" y="696"/>
      <point x="704" y="694" type="curve" smooth="yes"/>
      <point x="712" y="691"/>
      <point x="721" y="697"/>
      <point x="723" y="705" type="curve" smooth="yes"/>
      <point x="756" y="827"/>
      <point x="867" y="917"/>
      <point x="999" y="917" type="curve" smooth="yes"/>
      <point x="1155" y="917"/>
      <point x="1284" y="789"/>
      <point x="1284" y="632" type="curve" smooth="yes"/>
      <point x="1284" y="16" type="line" smooth="yes"/>
      <point x="1284" y="7"/>
      <point x="1291" y="0"/>
      <point x="1300" y="0" type="curve" smooth="yes"/>
      <point x="1309" y="0"/>
      <point x="1316" y="7"/>
      <point x="1316" y="16" type="curve" smooth="yes"/>
      <point x="1316" y="632" type="line" smooth="yes"/>
      <point x="1316" y="807"/>
      <point x="1173" y="949"/>
      <point x="999" y="949" type="curve" smooth="yes"/>
      <point x="853" y="949"/>
      <point x="728" y="849"/>
    </contour>
    <contour>
      <point x="91" y="713" type="curve" smooth="yes"/>
      <point x="88" y="705"/>
      <point x="94" y="696"/>
      <point x="102" y="694" type="curve" smooth="yes"/>
      <point x="110" y="691"/>
      <point x="119" y="697"/>
      <point x="121" y="705" type="curve" smooth="yes"/>
      <point x="154" y="827"/>
      <point x="265" y="917"/>
      <point x="397" y="917" type="curve" smooth="yes"/>
      <point x="553" y="917"/>
      <point x="682" y="789"/>
      <point x="682" y="632" type="curve" smooth="yes"/>
      <point x="682" y="16" type="line" smooth="yes"/>
      <point x="682" y="7"/>
      <point x="689" y="0"/>
      <point x="698" y="0" type="curve" smooth="yes"/>
      <point x="707" y="0"/>
      <point x="714" y="7"/>
      <point x="714" y="16" type="curve" smooth="yes"/>
      <point x="714" y="632" type="line" smooth="yes"/>
      <point x="714" y="807"/>
      <point x="571" y="949"/>
      <point x="397" y="949" type="curve" smooth="yes"/>
      <point x="251" y="949"/>
      <point x="126" y="849"/>
    </contour>
  </outline>
</glyph>
<glyph name="q" format="1">
  <advance width="616.0"/>
  <unicode hex="0071"/>
  <outline>
    <contour>
      <point x="536" y="640" type="line"/>
      <point x="536" y="766"/>
      <point x="434" y="868"/>
      <point x="308" y="868" type="curve" smooth="yes"/>
      <point x="182" y="868"/>
      <point x="80" y="766"/>
      <point x="80" y="640" type="curve" smooth="yes"/>
      <point x="80" y="212" type="line" smooth="yes"/>
      <point x="80" y="86"/>
      <point x="182" y="-16"/>
      <point x="308" y="-16" type="curve" smooth="yes"/>
      <point x="392" y="-16"/>
      <point x="464" y="28"/>
      <point x="504" y="96" type="curve"/>
      <point x="504" y="-464" type="line"/>
      <point x="504" y="-472"/>
      <point x="512" y="-480"/>
      <point x="520" y="-480" type="curve" smooth="yes"/>
      <point x="528" y="-480"/>
      <point x="536" y="-472"/>
      <point x="536" y="-464" type="curve" smooth="yes"/>
      <point x="536" y="212" type="line" smooth="yes"/>
      <point x="536" y="212" type="line" smooth="yes"/>
      <point x="536" y="212" type="line" smooth="yes"/>
    </contour>
    <contour>
      <point x="504" y="212" type="line"/>
      <point x="504" y="104"/>
      <point x="416" y="16"/>
      <point x="308" y="16" type="curve" smooth="yes"/>
      <point x="200" y="16"/>
      <point x="112" y="104"/>
      <point x="112" y="212" type="curve" smooth="yes"/>
      <point x="112" y="640" type="line" smooth="yes"/>
      <point x="112" y="748"/>
      <point x="200" y="836"/>
      <point x="308" y="836" type="curve" smooth="yes"/>
      <point x="416" y="836"/>
      <point x="504" y="748"/>
      <point x="504" y="640" type="curve"/>
    </contour>
  </outline>
</glyph>
<glyph name="t" format="1">
  <advance width="643"/>
  <unicode hex="0074"/>
  <outline>
    <contour>
      <point x="112" y="1087" type="line" smooth="yes"/>
      <point x="112" y="1096"/>
      <point x="105" y="1103"/>
      <point x="96" y="1103" type="curve" smooth="yes"/>
      <point x="87" y="1103"/>
      <point x="80" y="1096"/>
      <point x="80" y="1087" type="curve" smooth="yes"/>
      <point x="80" y="451" type="line" smooth="yes"/>
      <point x="80" y="194"/>
      <point x="290" y="-16"/>
      <point x="547" y="-16" type="curve" smooth="yes"/>
      <point x="556" y="-16"/>
      <point x="563" y="-9"/>
      <point x="563" y="0" type="curve" smooth="yes"/>
      <point x="563" y="9"/>
      <point x="556" y="16"/>
      <point x="547" y="16" type="curve" smooth="yes"/>
      <point x="308" y="16"/>
      <point x="112" y="212"/>
      <point x="112" y="451" type="curve" smooth="yes"/>
    </contour>
    <contour>
      <point x="106" y="495" type="line" smooth="yes"/>
      <point x="97" y="495"/>
      <point x="90" y="488"/>
      <point x="90" y="479" type="curve" smooth="yes"/>
      <point x="90" y="470"/>
      <point x="97" y="463"/>
      <point x="106" y="463" type="curve" smooth="yes"/>
      <point x="336" y="463" type="line" smooth="yes"/>
      <point x="345" y="463"/>
      <point x="352" y="470"/>
      <point x="352" y="479" type="curve" smooth="yes"/>
      <point x="352" y="488"/>
      <point x="345" y="495"/>
      <point x="336" y="495" type="curve" smooth="yes"/>
    </contour>
  </outline>
</glyph>
<glyph name="u" format="1">
  <advance width="1095"/>
  <unicode hex="0075"/>
  <outline>
    <contour>
      <point x="112" y="917" type="line" smooth="yes"/>
      <point x="112" y="926"/>
      <point x="105" y="933"/>
      <point x="96" y="933" type="curve" smooth="yes"/>
      <point x="87" y="933"/>
      <point x="80" y="926"/>
      <point x="80" y="917" type="curve" smooth="yes"/>
      <point x="80" y="451" type="line" smooth="yes"/>
      <point x="80" y="194"/>
      <point x="290" y="-16"/>
      <point x="547" y="-16" type="curve" smooth="yes"/>
      <point x="773" y="-16"/>
      <point x="963" y="147"/>
      <point x="1006" y="361" type="curve" smooth="yes"/>
      <point x="1007" y="369"/>
      <point x="1002" y="378"/>
      <point x="993" y="380" type="curve" smooth="yes"/>
      <point x="985" y="381"/>
      <point x="976" y="376"/>
      <point x="974" y="367" type="curve" smooth="yes"/>
      <point x="935" y="167"/>
      <point x="757" y="16"/>
      <point x="547" y="16" type="curve" smooth="yes"/>
      <point x="308" y="16"/>
      <point x="112" y="212"/>
      <point x="112" y="451" type="curve" smooth="yes"/>
    </contour>
    <contour>
      <point x="982" y="16" type="line" smooth="yes"/>
      <point x="982" y="7"/>
      <point x="989" y="0"/>
      <point x="998" y="0" type="curve" smooth="yes"/>
      <point x="1007" y="0"/>
      <point x="1014" y="7"/>
      <point x="1014" y="16" type="curve" smooth="yes"/>
      <point x="1014" y="917" type="line" smooth="yes"/>
      <point x="1014" y="926"/>
      <point x="1007" y="933"/>
      <point x="998" y="933" type="curve" smooth="yes"/>
      <point x="989" y="933"/>
      <point x="982" y="926"/>
      <point x="982" y="917" type="curve" smooth="yes"/>
    </contour>
  </outline>
</glyph>
<glyph name="v" format="1">
  <advance width="1073.76404687"/>
  <unicode hex="0076"/>
  <outline>
    <contour>
      <point x="90" y="940" type="line" smooth="yes"/>
      <point x="87" y="948"/>
      <point x="77" y="951"/>
      <point x="69" y="947" type="curve" smooth="yes"/>
      <point x="61" y="944"/>
      <point x="58" y="934"/>
      <point x="62" y="926" type="curve" smooth="yes"/>
      <point x="523" y="-7" type="line" smooth="yes"/>
      <point x="529" y="-20"/>
      <point x="545" y="-20"/>
      <point x="551" y="-7" type="curve" smooth="yes"/>
      <point x="1012" y="926" type="line" smooth="yes"/>
      <point x="1016" y="934"/>
      <point x="1013" y="944"/>
      <point x="1005" y="947" type="curve" smooth="yes"/>
      <point x="997" y="951"/>
      <point x="987" y="948"/>
      <point x="984" y="940" type="curve" smooth="yes"/>
      <point x="523" y="7" type="line"/>
      <point x="551" y="7" type="line"/>
    </contour>
  </outline>
</glyph>
<glyph name="w" format="1">
  <advance width="1396"/>
  <unicode hex="0077"/>
  <outline>
    <contour>
      <point x="91" y="938" type="line" smooth="yes"/>
      <point x="89" y="946"/>
      <point x="79" y="951"/>
      <point x="71" y="948" type="curve" smooth="yes"/>
      <point x="63" y="946"/>
      <point x="58" y="936"/>
      <point x="61" y="928" type="curve" smooth="yes"/>
      <point x="361" y="-5" type="line" smooth="yes"/>
      <point x="366" y="-20"/>
      <point x="384" y="-21"/>
      <point x="390" y="-7" type="curve" smooth="yes"/>
      <point x="686" y="609" type="line"/>
      <point x="658" y="609" type="line"/>
      <point x="957" y="-7" type="line" smooth="yes"/>
      <point x="963" y="-21"/>
      <point x="981" y="-20"/>
      <point x="986" y="-5" type="curve" smooth="yes"/>
      <point x="1283" y="928" type="line" smooth="yes"/>
      <point x="1286" y="936"/>
      <point x="1281" y="946"/>
      <point x="1273" y="948" type="curve" smooth="yes"/>
      <point x="1265" y="951"/>
      <point x="1255" y="946"/>
      <point x="1253" y="938" type="curve" smooth="yes"/>
      <point x="956" y="5" type="line"/>
      <point x="985" y="7" type="line"/>
      <point x="686" y="623" type="line" smooth="yes"/>
      <point x="680" y="636"/>
      <point x="664" y="636"/>
      <point x="658" y="623" type="curve" smooth="yes"/>
      <point x="362" y="7" type="line"/>
      <point x="391" y="5" type="line"/>
    </contour>
  </outline>
</glyph>
<glyph name="x" format="1">
  <advance width="616.0"/>
  <unicode hex="0078"/>
  <outline>
    <contour>
      <point x="326" y="426" type="line"/>
      <point x="534" y="828" type="line" smooth="yes"/>
      <point x="538" y="836"/>
      <point x="536" y="846"/>
      <point x="528" y="850" type="curve" smooth="yes"/>
      <point x="520" y="854"/>
      <point x="510" y="852"/>
      <point x="506" y="844" type="curve" smooth="yes"/>
      <point x="308" y="460" type="line"/>
      <point x="110" y="844" type="line" smooth="yes"/>
      <point x="106" y="852"/>
      <point x="96" y="854"/>
      <point x="88" y="850" type="curve" smooth="yes"/>
      <point x="80" y="846"/>
      <point x="78" y="836"/>
      <point x="82" y="828" type="curve" smooth="yes"/>
      <point x="290" y="426" type="line"/>
      <point x="82" y="24" type="line" smooth="yes"/>
      <point x="78" y="16"/>
      <point x="80" y="6"/>
      <point x="88" y="2" type="curve" smooth="yes"/>
      <point x="92" y="0"/>
      <point x="94" y="0"/>
      <point x="96" y="0" type="curve" smooth="yes"/>
      <point x="102" y="0"/>
      <point x="108" y="4"/>
      <point x="110" y="8" type="curve" smooth="yes"/>
      <point x="308" y="392" type="line"/>
      <point x="506" y="8" type="line" smooth="yes"/>
      <point x="508" y="4"/>
      <point x="514" y="0"/>
      <point x="520" y="0" type="curve" smooth="yes"/>
      <point x="522" y="0"/>
      <point x="524" y="0"/>
      <point x="528" y="2" type="curve" smooth="yes"/>
      <point x="536" y="6"/>
      <point x="538" y="16"/>
      <point x="534" y="24" type="curve" smooth="yes"/>
    </contour>
  </outline>
</glyph>
<glyph name="z" format="1">
  <advance width="616.0"/>
  <unicode hex="007A"/>
  <outline>
    <contour>
      <point x="520" y="0" type="line" smooth="yes"/>
      <point x="528" y="0"/>
      <point x="536" y="8"/>
      <point x="536" y="16" type="curve" smooth="yes"/>
      <point x="536" y="24"/>
      <point x="528" y="32"/>
      <point x="520" y="32" type="curve" smooth="yes"/>
      <point x="122" y="32" type="line"/>
      <point x="534" y="828" type="line" smooth="yes"/>
      <point x="536" y="834"/>
      <point x="536" y="840"/>
      <point x="534" y="844" type="curve" smooth="yes"/>
      <point x="530" y="850"/>
      <point x="526" y="852"/>
      <point x="520" y="852" type="curve" smooth="yes"/>
      <point x="96" y="852" type="line" smooth="yes"/>
      <point x="88" y="852"/>
      <point x="80" y="844"/>
      <point x="80" y="836" type="curve" smooth="yes"/>
      <point x="80" y="828"/>
      <point x="88" y="820"/>
      <point x="96" y="820" type="curve" smooth="yes"/>
      <point x="494" y="820" type="line"/>
      <point x="82" y="24" type="line" smooth="yes"/>
      <point x="80" y="18"/>
      <point x="80" y="12"/>
      <point x="82" y="8" type="curve" smooth="yes"/>
      <point x="86" y="2"/>
      <point x="90" y="0"/>
      <point x="96" y="0" type="curve" smooth="yes"/>
    </contour>
  </outline>
</glyph>
<glyph name="braceleft" format="1">
  <advance width="384.0"/>
  <unicode hex="007B"/>
  <outline>
    <contour>
      <point x="308" y="-32" type="curve" smooth="yes"/>
      <point x="316" y="-32"/>
      <point x="324" y="-24"/>
      <point x="324" y="-16" type="curve" smooth="yes"/>
      <point x="324" y="-8"/>
      <point x="316" y="0"/>
      <point x="308" y="0" type="curve" smooth="yes"/>
      <point x="258" y="0"/>
      <point x="218" y="40"/>
      <point x="218" y="90" type="curve" smooth="yes"/>
      <point x="218" y="546" type="line" smooth="yes"/>
      <point x="218" y="592"/>
      <point x="192" y="632"/>
      <point x="156" y="652" type="curve"/>
      <point x="192" y="674"/>
      <point x="218" y="714"/>
      <point x="218" y="758" type="curve" smooth="yes"/>
      <point x="218" y="1110" type="line" smooth="yes"/>
      <point x="218" y="1160"/>
      <point x="258" y="1200"/>
      <point x="308" y="1200" type="curve" smooth="yes"/>
      <point x="316" y="1200"/>
      <point x="324" y="1208"/>
      <point x="324" y="1216" type="curve" smooth="yes"/>
      <point x="324" y="1224"/>
      <point x="316" y="1232"/>
      <point x="308" y="1232" type="curve" smooth="yes"/>
      <point x="240" y="1232"/>
      <point x="186" y="1178"/>
      <point x="186" y="1110" type="curve" smooth="yes"/>
      <point x="186" y="758" type="line" smooth="yes"/>
      <point x="186" y="710"/>
      <point x="146" y="668"/>
      <point x="96" y="668" type="curve" smooth="yes"/>
      <point x="88" y="668"/>
      <point x="80" y="662"/>
      <point x="80" y="652" type="curve" smooth="yes"/>
      <point x="80" y="644"/>
      <point x="88" y="636"/>
      <point x="96" y="636" type="curve" smooth="yes"/>
      <point x="146" y="636"/>
      <point x="186" y="596"/>
      <point x="186" y="546" type="curve" smooth="yes"/>
      <point x="186" y="90" type="line" smooth="yes"/>
      <point x="186" y="22"/>
      <point x="240" y="-32"/>
    </contour>
  </outline>
</glyph>
<glyph name="bar" format="1">
  <advance width="372"/>
  <unicode hex="007C"/>
  <outline>
    <contour>
      <point x="186" y="1296" type="curve" smooth="yes"/>
      <point x="178" y="1296"/>
      <point x="170" y="1288"/>
      <point x="170" y="1280" type="curve" smooth="yes"/>
      <point x="170" y="-80" type="line" smooth="yes"/>
      <point x="170" y="-88"/>
      <point x="178" y="-96"/>
      <point x="186" y="-96" type="curve" smooth="yes"/>
      <point x="194" y="-96"/>
      <point x="202" y="-88"/>
      <point x="202" y="-80" type="curve" smooth="yes"/>
      <point x="202" y="1280" type="line" smooth="yes"/>
      <point x="202" y="1288"/>
      <point x="194" y="1296"/>
    </contour>
  </outline>
</glyph>
<glyph name="braceright" format="1">
  <advance width="384.0"/>
  <unicode hex="007D"/>
  <outline>
    <contour>
      <point x="76" y="-32" type="curve" smooth="yes"/>
      <point x="144" y="-32"/>
      <point x="198" y="22"/>
      <point x="198" y="90" type="curve" smooth="yes"/>
      <point x="198" y="546" type="line" smooth="yes"/>
      <point x="198" y="596"/>
      <point x="238" y="636"/>
      <point x="288" y="636" type="curve" smooth="yes"/>
      <point x="296" y="636"/>
      <point x="304" y="644"/>
      <point x="304" y="652" type="curve" smooth="yes"/>
      <point x="304" y="662"/>
      <point x="296" y="668"/>
      <point x="288" y="668" type="curve" smooth="yes"/>
      <point x="238" y="668"/>
      <point x="198" y="710"/>
      <point x="198" y="758" type="curve" smooth="yes"/>
      <point x="198" y="1110" type="line" smooth="yes"/>
      <point x="198" y="1178"/>
      <point x="144" y="1232"/>
      <point x="76" y="1232" type="curve" smooth="yes"/>
      <point x="68" y="1232"/>
      <point x="60" y="1224"/>
      <point x="60" y="1216" type="curve" smooth="yes"/>
      <point x="60" y="1208"/>
      <point x="68" y="1200"/>
      <point x="76" y="1200" type="curve" smooth="yes"/>
      <point x="126" y="1200"/>
      <point x="166" y="1160"/>
      <point x="166" y="1110" type="curve" smooth="yes"/>
      <point x="166" y="758" type="line" smooth="yes"/>
      <point x="166" y="714"/>
      <point x="190" y="674"/>
      <point x="228" y="652" type="curve"/>
      <point x="190" y="632"/>
      <point x="166" y="592"/>
      <point x="166" y="546" type="curve" smooth="yes"/>
      <point x="166" y="90" type="line" smooth="yes"/>
      <point x="166" y="40"/>
      <point x="126" y="0"/>
      <point x="76" y="0" type="curve" smooth="yes"/>
      <point x="68" y="0"/>
      <point x="60" y="-8"/>
      <point x="60" y="-16" type="curve" smooth="yes"/>
      <point x="60" y="-24"/>
      <point x="68" y="-32"/>
    </contour>
  </outline>
</glyph>
<glyph name="cent" format="1">
  <advance width="616.0"/>
  <unicode hex="00A2"/>
  <outline>
    <contour>
      <point x="324" y="-80" type="curve" smooth="yes"/>
      <point x="324" y="-15" type="line"/>
      <point x="443" y="-7"/>
      <point x="536" y="91"/>
      <point x="536" y="212" type="curve" smooth="yes"/>
      <point x="536" y="220"/>
      <point x="528" y="228"/>
      <point x="520" y="228" type="curve" smooth="yes"/>
      <point x="512" y="228"/>
      <point x="504" y="220"/>
      <point x="504" y="212" type="curve" smooth="yes"/>
      <point x="504" y="109"/>
      <point x="425" y="25"/>
      <point x="324" y="17" type="curve"/>
      <point x="324" y="835" type="line"/>
      <point x="425" y="827"/>
      <point x="504" y="743"/>
      <point x="504" y="640" type="curve" smooth="yes"/>
      <point x="504" y="632"/>
      <point x="512" y="624"/>
      <point x="520" y="624" type="curve" smooth="yes"/>
      <point x="528" y="624"/>
      <point x="536" y="632"/>
      <point x="536" y="640" type="curve" smooth="yes"/>
      <point x="536" y="761"/>
      <point x="443" y="859"/>
      <point x="324" y="867" type="curve"/>
      <point x="324" y="920" type="line" smooth="yes"/>
      <point x="324" y="928"/>
      <point x="316" y="936"/>
      <point x="308" y="936" type="curve" smooth="yes"/>
      <point x="300" y="936"/>
      <point x="292" y="928"/>
      <point x="292" y="920" type="curve" smooth="yes"/>
      <point x="292" y="867" type="line"/>
      <point x="173" y="859"/>
      <point x="80" y="761"/>
      <point x="80" y="640" type="curve" smooth="yes"/>
      <point x="80" y="212" type="line" smooth="yes"/>
      <point x="80" y="91"/>
      <point x="173" y="-7"/>
      <point x="292" y="-15" type="curve"/>
      <point x="292" y="-80" type="line" smooth="yes"/>
      <point x="292" y="-88"/>
      <point x="300" y="-96"/>
      <point x="308" y="-96" type="curve" smooth="yes"/>
      <point x="316" y="-96"/>
      <point x="324" y="-88"/>
    </contour>
    <contour>
      <point x="112" y="212" type="curve" smooth="yes"/>
      <point x="112" y="640" type="line" smooth="yes"/>
      <point x="112" y="743"/>
      <point x="191" y="827"/>
      <point x="292" y="835" type="curve"/>
      <point x="292" y="17" type="line"/>
      <point x="191" y="25"/>
      <point x="112" y="109"/>
    </contour>
  </outline>
</glyph>
<glyph name="brokenbar" format="1">
  <advance width="192.0"/>
  <unicode hex="00A6"/>
  <outline>
    <contour>
      <point x="112" y="1280" type="line" smooth="yes"/>
      <point x="112" y="1289"/>
      <point x="105" y="1296"/>
      <point x="96" y="1296" type="curve" smooth="yes"/>
      <point x="87" y="1296"/>
      <point x="80" y="1289"/>
      <point x="80" y="1280" type="curve" smooth="yes"/>
      <point x="80" y="698" type="line" smooth="yes"/>
      <point x="80" y="689"/>
      <point x="87" y="682"/>
      <point x="96" y="682" type="curve" smooth="yes"/>
      <point x="105" y="682"/>
      <point x="112" y="689"/>
      <point x="112" y="698" type="curve" smooth="yes"/>
    </contour>
    <contour>
      <point x="80" y="-80" type="line" smooth="yes"/>
      <point x="80" y="-89"/>
      <point x="87" y="-96"/>
      <point x="96" y="-96" type="curve" smooth="yes"/>
      <point x="105" y="-96"/>
      <point x="112" y="-89"/>
      <point x="112" y="-80" type="curve" smooth="yes"/>
      <point x="112" y="509" type="line" smooth="yes"/>
      <point x="112" y="518"/>
      <point x="105" y="525"/>
      <point x="96" y="525" type="curve" smooth="yes"/>
      <point x="87" y="525"/>
      <point x="80" y="518"/>
      <point x="80" y="509" type="curve" smooth="yes"/>
    </contour>
  </outline>
</glyph>
<glyph name="dieresis" format="1">
  <advance width="280.0"/>
  <unicode hex="00A8"/>
  <outline>
    <contour>
      <point x="180" y="1298" type="curve" smooth="yes"/>
      <point x="190" y="1298"/>
      <point x="200" y="1306"/>
      <point x="200" y="1318" type="curve" smooth="yes"/>
      <point x="200" y="1328"/>
      <point x="190" y="1338"/>
      <point x="180" y="1338" type="curve" smooth="yes"/>
      <point x="168" y="1338"/>
      <point x="160" y="1328"/>
      <point x="160" y="1318" type="curve" smooth="yes"/>
      <point x="160" y="1306"/>
      <point x="168" y="1298"/>
    </contour>
    <contour>
      <point x="100" y="1298" type="curve" smooth="yes"/>
      <point x="110" y="1298"/>
      <point x="120" y="1306"/>
      <point x="120" y="1318" type="curve" smooth="yes"/>
      <point x="120" y="1328"/>
      <point x="110" y="1338"/>
      <point x="100" y="1338" type="curve" smooth="yes"/>
      <point x="88" y="1338"/>
      <point x="80" y="1328"/>
      <point x="80" y="1318" type="curve" smooth="yes"/>
      <point x="80" y="1306"/>
      <point x="88" y="1298"/>
    </contour>
  </outline>
</glyph>
<glyph name="logicalnot" format="1">
  <advance width="616.0"/>
  <unicode hex="00AC"/>
  <outline>
    <contour>
      <point x="520" y="198" type="curve" smooth="yes"/>
      <point x="528" y="198"/>
      <point x="536" y="206"/>
      <point x="536" y="214" type="curve" smooth="yes"/>
      <point x="536" y="426" type="line" smooth="yes"/>
      <point x="536" y="434"/>
      <point x="528" y="442"/>
      <point x="520" y="442" type="curve" smooth="yes"/>
      <point x="96" y="442" type="line" smooth="yes"/>
      <point x="88" y="442"/>
      <point x="80" y="434"/>
      <point x="80" y="426" type="curve" smooth="yes"/>
      <point x="80" y="418"/>
      <point x="88" y="410"/>
      <point x="96" y="410" type="curve" smooth="yes"/>
      <point x="504" y="410" type="line"/>
      <point x="504" y="214" type="line"/>
      <point x="504" y="206"/>
      <point x="512" y="198"/>
    </contour>
  </outline>
</glyph>
<glyph name="paragraph" format="1">
  <advance width="576"/>
  <unicode hex="00B6"/>
  <outline>
    <contour>
      <point x="444" y="0" type="curve" smooth="yes"/>
      <point x="452" y="0"/>
      <point x="460" y="8"/>
      <point x="460" y="16" type="curve" smooth="yes"/>
      <point x="460" y="1184" type="line"/>
      <point x="480" y="1184" type="line"/>
      <point x="488" y="1184"/>
      <point x="496" y="1192"/>
      <point x="496" y="1200" type="curve" smooth="yes"/>
      <point x="496" y="1208"/>
      <point x="488" y="1216"/>
      <point x="480" y="1216" type="curve" smooth="yes"/>
      <point x="270" y="1216" type="line" smooth="yes"/>
      <point x="165" y="1216"/>
      <point x="80" y="1130"/>
      <point x="80" y="1026" type="curve" smooth="yes"/>
      <point x="80" y="921"/>
      <point x="165" y="836"/>
      <point x="270" y="836" type="curve"/>
      <point x="338" y="836" type="line"/>
      <point x="338" y="16" type="line" smooth="yes"/>
      <point x="338" y="8"/>
      <point x="346" y="0"/>
      <point x="354" y="0" type="curve" smooth="yes"/>
      <point x="362" y="0"/>
      <point x="370" y="8"/>
      <point x="370" y="16" type="curve" smooth="yes"/>
      <point x="370" y="1184" type="line"/>
      <point x="428" y="1184" type="line"/>
      <point x="428" y="16" type="line" smooth="yes"/>
      <point x="428" y="8"/>
      <point x="436" y="0"/>
    </contour>
    <contour>
      <point x="270" y="868" type="line"/>
      <point x="183" y="868"/>
      <point x="112" y="939"/>
      <point x="112" y="1026" type="curve" smooth="yes"/>
      <point x="112" y="1113"/>
      <point x="183" y="1184"/>
      <point x="270" y="1184" type="curve"/>
      <point x="338" y="1184" type="line"/>
      <point x="338" y="868" type="line"/>
    </contour>
  </outline>
</glyph>
<glyph name="AE" format="1">
  <advance width="718.0"/>
  <unicode hex="00C6"/>
  <outline>
    <contour>
      <point x="282" y="284" type="line"/>
      <point x="152" y="284" type="line"/>
      <point x="282" y="1008" type="line"/>
    </contour>
    <contour>
      <point x="104" y="14" type="curve" smooth="yes"/>
      <point x="146" y="252" type="line"/>
      <point x="282" y="252" type="line"/>
      <point x="282" y="16" type="line" smooth="yes"/>
      <point x="282" y="8"/>
      <point x="290" y="0"/>
      <point x="298" y="0" type="curve" smooth="yes"/>
      <point x="620" y="0" type="line" smooth="yes"/>
      <point x="628" y="0"/>
      <point x="636" y="8"/>
      <point x="636" y="16" type="curve" smooth="yes"/>
      <point x="636" y="24"/>
      <point x="628" y="32"/>
      <point x="620" y="32" type="curve" smooth="yes"/>
      <point x="314" y="32" type="line"/>
      <point x="314" y="530" type="line"/>
      <point x="542" y="530" type="line" smooth="yes"/>
      <point x="550" y="530"/>
      <point x="558" y="538"/>
      <point x="558" y="546" type="curve" smooth="yes"/>
      <point x="558" y="554"/>
      <point x="550" y="562"/>
      <point x="542" y="562" type="curve" smooth="yes"/>
      <point x="314" y="562" type="line"/>
      <point x="314" y="1184" type="line"/>
      <point x="622" y="1184" type="line" smooth="yes"/>
      <point x="630" y="1184"/>
      <point x="638" y="1192"/>
      <point x="638" y="1200" type="curve" smooth="yes"/>
      <point x="638" y="1208"/>
      <point x="630" y="1216"/>
      <point x="622" y="1216" type="curve" smooth="yes"/>
      <point x="300" y="1216" type="line" smooth="yes"/>
      <point x="298" y="1216" type="line"/>
      <point x="298" y="1216" type="line" smooth="yes"/>
      <point x="290" y="1216"/>
      <point x="282" y="1208"/>
      <point x="282" y="1200" type="curve"/>
      <point x="282" y="1190" type="line"/>
      <point x="72" y="18" type="line"/>
      <point x="70" y="10"/>
      <point x="76" y="2"/>
      <point x="86" y="0" type="curve" smooth="yes"/>
      <point x="94" y="-2"/>
      <point x="102" y="4"/>
    </contour>
  </outline>
</glyph>
<glyph name="Eth" format="1">
  <advance width="1345"/>
  <unicode hex="00D0"/>
  <outline>
    <contour>
      <point x="228" y="530" type="line"/>
      <point x="236" y="530"/>
      <point x="244" y="538"/>
      <point x="244" y="546" type="curve" smooth="yes"/>
      <point x="244" y="556"/>
      <point x="236" y="562"/>
      <point x="228" y="562" type="curve" smooth="yes"/>
      <point x="16" y="562" type="line" smooth="yes"/>
      <point x="8" y="562"/>
      <point x="0" y="556"/>
      <point x="0" y="546" type="curve" smooth="yes"/>
      <point x="0" y="538"/>
      <point x="8" y="530"/>
      <point x="16" y="530" type="curve" smooth="yes"/>
    </contour>
    <component base="D"/>
  </outline>
</glyph>
<glyph name="multiply" format="1">
  <advance width="617"/>
  <unicode hex="00D7"/>
  <outline>
    <contour>
      <point x="521" y="197" type="curve" smooth="yes"/>
      <point x="525" y="197"/>
      <point x="529" y="198"/>
      <point x="532" y="201" type="curve" smooth="yes"/>
      <point x="535" y="204"/>
      <point x="537" y="208"/>
      <point x="537" y="214" type="curve" smooth="yes"/>
      <point x="537" y="218"/>
      <point x="535" y="222"/>
      <point x="532" y="225" type="curve" smooth="yes"/>
      <point x="330" y="426" type="line"/>
      <point x="531" y="627" type="line" smooth="yes"/>
      <point x="534" y="630"/>
      <point x="536" y="634"/>
      <point x="536" y="638" type="curve" smooth="yes"/>
      <point x="536" y="642"/>
      <point x="534" y="647"/>
      <point x="531" y="649" type="curve" smooth="yes"/>
      <point x="529" y="652"/>
      <point x="524" y="654"/>
      <point x="520" y="654" type="curve" smooth="yes"/>
      <point x="516" y="654"/>
      <point x="512" y="652"/>
      <point x="509" y="649" type="curve" smooth="yes"/>
      <point x="308" y="448" type="line"/>
      <point x="107" y="649" type="line" smooth="yes"/>
      <point x="104" y="652"/>
      <point x="100" y="654"/>
      <point x="96" y="654" type="curve" smooth="yes"/>
      <point x="92" y="654"/>
      <point x="87" y="652"/>
      <point x="85" y="649" type="curve" smooth="yes"/>
      <point x="82" y="647"/>
      <point x="80" y="642"/>
      <point x="80" y="638" type="curve" smooth="yes"/>
      <point x="80" y="634"/>
      <point x="82" y="630"/>
      <point x="85" y="627" type="curve" smooth="yes"/>
      <point x="285" y="426" type="line"/>
      <point x="84" y="225" type="line" smooth="yes"/>
      <point x="81" y="222"/>
      <point x="80" y="218"/>
      <point x="80" y="213" type="curve" smooth="yes"/>
      <point x="80" y="209"/>
      <point x="81" y="205"/>
      <point x="84" y="202" type="curve" smooth="yes"/>
      <point x="87" y="199"/>
      <point x="91" y="197"/>
      <point x="96" y="197" type="curve" smooth="yes"/>
      <point x="100" y="197"/>
      <point x="104" y="199"/>
      <point x="107" y="202" type="curve" smooth="yes"/>
      <point x="308" y="403" type="line"/>
      <point x="509" y="201" type="line" smooth="yes"/>
      <point x="512" y="198"/>
      <point x="516" y="197"/>
    </contour>
  </outline>
</glyph>
<glyph name="germandbls" format="1">
  <advance width="676"/>
  <unicode hex="00DF"/>
  <outline>
    <contour>
      <point x="333" y="-16" type="curve" smooth="yes"/>
      <point x="407" y="-16"/>
      <point x="471" y="48"/>
      <point x="471" y="124" type="curve"/>
      <point x="471" y="443" type="line" smooth="yes"/>
      <point x="471" y="557"/>
      <point x="388" y="651"/>
      <point x="279" y="668" type="curve"/>
      <point x="452" y="841" type="line"/>
      <point x="452" y="841"/>
      <point x="453" y="842"/>
      <point x="453" y="842" type="curve"/>
      <point x="453" y="842"/>
      <point x="453" y="843"/>
      <point x="454" y="843" type="curve"/>
      <point x="454" y="843"/>
      <point x="454" y="843"/>
      <point x="454" y="843" type="curve"/>
      <point x="456" y="846"/>
      <point x="457" y="849"/>
      <point x="457" y="852" type="curve" smooth="yes"/>
      <point x="457" y="855"/>
      <point x="456" y="857"/>
      <point x="455" y="860" type="curve"/>
      <point x="454" y="861"/>
      <point x="453" y="862"/>
      <point x="452" y="863" type="curve" smooth="yes"/>
      <point x="452" y="863"/>
      <point x="451" y="864"/>
      <point x="451" y="864" type="curve"/>
      <point x="451" y="864"/>
      <point x="451" y="864"/>
      <point x="451" y="864" type="curve"/>
      <point x="449" y="865"/>
      <point x="448" y="866"/>
      <point x="446" y="867" type="curve"/>
      <point x="443" y="868"/>
      <point x="444" y="868"/>
      <point x="446" y="867" type="curve"/>
      <point x="444" y="868"/>
      <point x="443" y="868"/>
      <point x="441" y="868" type="curve" smooth="yes"/>
      <point x="161" y="868" type="line" smooth="yes"/>
      <point x="153" y="868"/>
      <point x="145" y="860"/>
      <point x="145" y="852" type="curve" smooth="yes"/>
      <point x="145" y="844"/>
      <point x="153" y="836"/>
      <point x="161" y="836" type="curve" smooth="yes"/>
      <point x="402" y="836" type="line"/>
      <point x="232" y="666" type="line" smooth="yes"/>
      <point x="232" y="666"/>
      <point x="231" y="665"/>
      <point x="231" y="665" type="curve"/>
      <point x="231" y="665"/>
      <point x="231" y="664"/>
      <point x="230" y="664" type="curve"/>
      <point x="230" y="664"/>
      <point x="230" y="664"/>
      <point x="230" y="664" type="curve"/>
      <point x="228" y="661"/>
      <point x="227" y="658"/>
      <point x="227" y="655" type="curve" smooth="yes"/>
      <point x="227.0" y="651.211145618"/>
      <point x="227.763932023" y="647.236067977"/>
      <point x="232" y="643" type="curve" smooth="yes"/>
      <point x="235" y="641"/>
      <point x="239" y="639"/>
      <point x="243" y="639" type="curve" smooth="yes"/>
      <point x="351" y="639"/>
      <point x="439" y="551"/>
      <point x="439" y="443" type="curve" smooth="yes"/>
      <point x="439" y="124" type="line"/>
      <point x="439" y="64"/>
      <point x="391" y="16"/>
      <point x="333" y="16" type="curve" smooth="yes"/>
      <point x="273" y="16"/>
      <point x="225" y="64"/>
      <point x="225" y="124" type="curve"/>
      <point x="225" y="132"/>
      <point x="217" y="140"/>
      <point x="209" y="140" type="curve" smooth="yes"/>
      <point x="201" y="140"/>
      <point x="193" y="132"/>
      <point x="193" y="124" type="curve"/>
      <point x="193" y="48"/>
      <point x="257" y="-16"/>
    </contour>
    <contour>
      <point x="96" y="0" type="curve" smooth="yes"/>
      <point x="104" y="0"/>
      <point x="112" y="8"/>
      <point x="112" y="16" type="curve" smooth="yes"/>
      <point x="112" y="988" type="line" smooth="yes"/>
      <point x="112" y="1096"/>
      <point x="200" y="1184"/>
      <point x="308" y="1184" type="curve" smooth="yes"/>
      <point x="316" y="1184"/>
      <point x="324" y="1192"/>
      <point x="324" y="1200" type="curve" smooth="yes"/>
      <point x="324" y="1208"/>
      <point x="316" y="1216"/>
      <point x="308" y="1216" type="curve" smooth="yes"/>
      <point x="182" y="1216"/>
      <point x="80" y="1114"/>
      <point x="80" y="988" type="curve" smooth="yes"/>
      <point x="80" y="868" type="line"/>
      <point x="56" y="868" type="line"/>
      <point x="48" y="868"/>
      <point x="40" y="860"/>
      <point x="40" y="852" type="curve" smooth="yes"/>
      <point x="40" y="844"/>
      <point x="48" y="836"/>
      <point x="56" y="836" type="curve" smooth="yes"/>
      <point x="80" y="836" type="line"/>
      <point x="80" y="16" type="line" smooth="yes"/>
      <point x="80" y="8"/>
      <point x="88" y="0"/>
    </contour>
  </outline>
</glyph>
<glyph name="eth" format="1">
  <advance width="615.791603027"/>
  <unicode hex="00F0"/>
  <outline>
    <contour>
      <point x="430" y="1020" type="curve"/>
      <point x="580" y="1107" type="line"/>
      <point x="587" y="1111"/>
      <point x="590" y="1122"/>
      <point x="586" y="1129" type="curve" smooth="yes"/>
      <point x="582" y="1135"/>
      <point x="571" y="1138"/>
      <point x="564" y="1134" type="curve"/>
      <point x="414" y="1047" type="line"/>
      <point x="407" y="1043"/>
      <point x="404" y="1032"/>
      <point x="408" y="1026" type="curve" smooth="yes"/>
      <point x="412" y="1019"/>
      <point x="423" y="1016"/>
    </contour>
    <component base="partialdiff"/>
  </outline>
</glyph>
<glyph name="divide" format="1">
  <advance width="616.0"/>
  <unicode hex="00F7"/>
  <outline>
    <contour>
      <point x="520" y="410" type="line"/>
      <point x="528" y="410"/>
      <point x="536" y="418"/>
      <point x="536" y="426" type="curve" smooth="yes"/>
      <point x="536" y="434"/>
      <point x="528" y="442"/>
      <point x="520" y="442" type="curve" smooth="yes"/>
      <point x="96" y="442" type="line" smooth="yes"/>
      <point x="88" y="442"/>
      <point x="80" y="434"/>
      <point x="80" y="426" type="curve" smooth="yes"/>
      <point x="80" y="418"/>
      <point x="88" y="410"/>
      <point x="96" y="410" type="curve" smooth="yes"/>
    </contour>
    <contour>
      <point x="306" y="522" type="curve" smooth="yes"/>
      <point x="319" y="522"/>
      <point x="330" y="533"/>
      <point x="330" y="546" type="curve" smooth="yes"/>
      <point x="330" y="559"/>
      <point x="319" y="570"/>
      <point x="306" y="570" type="curve" smooth="yes"/>
      <point x="293" y="570"/>
      <point x="282" y="559"/>
      <point x="282" y="546" type="curve" smooth="yes"/>
      <point x="282" y="533"/>
      <point x="293" y="522"/>
    </contour>
    <contour>
      <point x="306" y="282" type="curve" smooth="yes"/>
      <point x="319" y="282"/>
      <point x="330" y="293"/>
      <point x="330" y="306" type="curve" smooth="yes"/>
      <point x="330" y="319"/>
      <point x="319" y="330"/>
      <point x="306" y="330" type="curve" smooth="yes"/>
      <point x="293" y="330"/>
      <point x="282" y="319"/>
      <point x="282" y="306" type="curve" smooth="yes"/>
      <point x="282" y="293"/>
      <point x="293" y="282"/>
    </contour>
  </outline>
</glyph>
<glyph name="thorn" format="1">
  <advance width="616.0"/>
  <unicode hex="00FE"/>
  <outline>
    <contour>
      <point x="80" y="-160" type="line" smooth="yes"/>
      <point x="80" y="-169"/>
      <point x="87" y="-176"/>
      <point x="96" y="-176" type="curve" smooth="yes"/>
      <point x="105" y="-176"/>
      <point x="112" y="-169"/>
      <point x="112" y="-160" type="curve" smooth="yes"/>
      <point x="112" y="1200" type="line" smooth="yes"/>
      <point x="112" y="1209"/>
      <point x="105" y="1216"/>
      <point x="96" y="1216" type="curve" smooth="yes"/>
      <point x="87" y="1216"/>
      <point x="80" y="1209"/>
      <point x="80" y="1200" type="curve" smooth="yes"/>
    </contour>
    <contour>
      <point x="80" y="482" type="curve" smooth="yes"/>
      <point x="80" y="473"/>
      <point x="87" y="466"/>
      <point x="96" y="466" type="curve" smooth="yes"/>
      <point x="105" y="466"/>
      <point x="112" y="473"/>
      <point x="112" y="482" type="curve" smooth="yes"/>
      <point x="112" y="721"/>
      <point x="308" y="917"/>
      <point x="547" y="917" type="curve" smooth="yes"/>
      <point x="786" y="917"/>
      <point x="982" y="721"/>
      <point x="982" y="482" type="curve" smooth="yes"/>
      <point x="982" y="451" type="line" smooth="yes"/>
      <point x="982" y="212"/>
      <point x="786" y="16"/>
      <point x="547" y="16" type="curve" smooth="yes"/>
      <point x="308" y="16"/>
      <point x="112" y="212"/>
      <point x="112" y="451" type="curve" smooth="yes"/>
      <point x="112" y="460"/>
      <point x="105" y="467"/>
      <point x="96" y="467" type="curve" smooth="yes"/>
      <point x="87" y="467"/>
      <point x="80" y="460"/>
      <point x="80" y="451" type="curve" smooth="yes"/>
      <point x="80" y="194"/>
      <point x="290" y="-16"/>
      <point x="547" y="-16" type="curve" smooth="yes"/>
      <point x="804" y="-16"/>
      <point x="1014" y="194"/>
      <point x="1014" y="451" type="curve" smooth="yes"/>
      <point x="1014" y="482" type="line" smooth="yes"/>
      <point x="1014" y="739"/>
      <point x="804" y="949"/>
      <point x="547" y="949" type="curve" smooth="yes"/>
      <point x="290" y="949"/>
      <point x="80" y="739"/>
    </contour>
  </outline>
</glyph>
<glyph name="dotlessi" format="1">
  <advance width="372"/>
  <unicode hex="0131"/>
  <outline>
    <contour>
      <point x="186" y="933" type="curve" smooth="yes"/>
      <point x="178" y="933"/>
      <point x="170" y="925"/>
      <point x="170" y="917" type="curve" smooth="yes"/>
      <point x="170" y="16" type="line" smooth="yes"/>
      <point x="170" y="8"/>
      <point x="178" y="0"/>
      <point x="186" y="0" type="curve" smooth="yes"/>
      <point x="194" y="0"/>
      <point x="202" y="8"/>
      <point x="202" y="16" type="curve" smooth="yes"/>
      <point x="202" y="917" type="line" smooth="yes"/>
      <point x="202" y="925"/>
      <point x="194" y="933"/>
    </contour>
  </outline>
</glyph>
<glyph name="kgreenlandic" format="1">
  <advance width="616.276877527"/>
  <unicode hex="0138"/>
  <outline>
    <contour>
      <point x="134" y="452" type="line"/>
      <point x="530" y="824" type="line" smooth="yes"/>
      <point x="538" y="830"/>
      <point x="538" y="840"/>
      <point x="532" y="846" type="curve" smooth="yes"/>
      <point x="526" y="854"/>
      <point x="516" y="854"/>
      <point x="510" y="848" type="curve" smooth="yes"/>
      <point x="112" y="474" type="line"/>
      <point x="112" y="836" type="line" smooth="yes"/>
      <point x="112" y="844"/>
      <point x="104" y="852"/>
      <point x="96" y="852" type="curve" smooth="yes"/>
      <point x="88" y="852"/>
      <point x="80" y="844"/>
      <point x="80" y="836" type="curve" smooth="yes"/>
      <point x="80" y="16" type="line" smooth="yes"/>
      <point x="80" y="8"/>
      <point x="88" y="0"/>
      <point x="96" y="0" type="curve" smooth="yes"/>
      <point x="104" y="0"/>
      <point x="112" y="8"/>
      <point x="112" y="16" type="curve" smooth="yes"/>
      <point x="112" y="428" type="line"/>
      <point x="508" y="6" type="line" smooth="yes"/>
      <point x="512" y="2"/>
      <point x="516" y="0"/>
      <point x="520" y="0" type="curve" smooth="yes"/>
      <point x="524" y="0"/>
      <point x="528" y="2"/>
      <point x="530" y="4" type="curve" smooth="yes"/>
      <point x="538" y="10"/>
      <point x="538" y="20"/>
      <point x="532" y="26" type="curve" smooth="yes"/>
    </contour>
  </outline>
</glyph>
<glyph name="Lslash" format="1">
  <advance width="616.0"/>
  <unicode hex="0141"/>
  <outline>
    <contour>
      <point x="179" y="884" type="line"/>
      <point x="186" y="888"/>
      <point x="189" y="899"/>
      <point x="185" y="906" type="curve" smooth="yes"/>
      <point x="181" y="912"/>
      <point x="170" y="915"/>
      <point x="163" y="911" type="curve" smooth="yes"/>
      <point x="13" y="824" type="line" smooth="yes"/>
      <point x="6" y="820"/>
      <point x="3" y="809"/>
      <point x="7" y="803" type="curve" smooth="yes"/>
      <point x="11" y="796"/>
      <point x="22" y="793"/>
      <point x="29" y="797" type="curve" smooth="yes"/>
    </contour>
    <component base="L"/>
  </outline>
</glyph>
<glyph name="lslash" format="1">
  <advance width="361.791603027"/>
  <unicode hex="0142"/>
  <outline>
    <contour>
      <point x="264" y="884" type="line"/>
      <point x="271" y="888"/>
      <point x="274" y="899"/>
      <point x="270" y="906" type="curve" smooth="yes"/>
      <point x="266" y="912"/>
      <point x="255" y="915"/>
      <point x="248" y="911" type="curve" smooth="yes"/>
      <point x="98" y="824" type="line" smooth="yes"/>
      <point x="91" y="820"/>
      <point x="88" y="809"/>
      <point x="92" y="803" type="curve" smooth="yes"/>
      <point x="96" y="796"/>
      <point x="107" y="793"/>
      <point x="114" y="797" type="curve" smooth="yes"/>
    </contour>
    <component base="l" xOffset="-5"/>
  </outline>
</glyph>
<glyph name="oe" format="1">
  <advance width="1040"/>
  <unicode hex="0153"/>
  <outline>
    <contour>
      <point x="732" y="-16" type="curve" smooth="yes"/>
      <point x="858" y="-16"/>
      <point x="960" y="86"/>
      <point x="960" y="212" type="curve" smooth="yes"/>
      <point x="960" y="220"/>
      <point x="952" y="228"/>
      <point x="944" y="228" type="curve" smooth="yes"/>
      <point x="936" y="228"/>
      <point x="928" y="220"/>
      <point x="928" y="212" type="curve" smooth="yes"/>
      <point x="928" y="104"/>
      <point x="840" y="16"/>
      <point x="732" y="16" type="curve" smooth="yes"/>
      <point x="624" y="16"/>
      <point x="536" y="104"/>
      <point x="536" y="212" type="curve" smooth="yes"/>
      <point x="536" y="418" type="line"/>
      <point x="944" y="418" type="line" smooth="yes"/>
      <point x="952" y="418"/>
      <point x="960" y="426"/>
      <point x="960" y="434" type="curve" smooth="yes"/>
      <point x="960" y="640" type="line" smooth="yes"/>
      <point x="960" y="766"/>
      <point x="858" y="868"/>
      <point x="732" y="868" type="curve" smooth="yes"/>
      <point x="636" y="868"/>
      <point x="553" y="808"/>
      <point x="520" y="724" type="curve"/>
      <point x="487" y="808"/>
      <point x="404" y="868"/>
      <point x="308" y="868" type="curve" smooth="yes"/>
      <point x="182" y="868"/>
      <point x="80" y="766"/>
      <point x="80" y="640" type="curve" smooth="yes"/>
      <point x="80" y="212" type="line" smooth="yes"/>
      <point x="80" y="86"/>
      <point x="182" y="-16"/>
      <point x="308" y="-16" type="curve" smooth="yes"/>
      <point x="404" y="-16"/>
      <point x="487" y="44"/>
      <point x="520" y="128" type="curve"/>
      <point x="553" y="44"/>
      <point x="636" y="-16"/>
    </contour>
    <contour>
      <point x="308" y="836" type="curve" smooth="yes"/>
      <point x="416" y="836"/>
      <point x="504" y="748"/>
      <point x="504" y="640" type="curve" smooth="yes"/>
      <point x="504" y="212" type="line" smooth="yes"/>
      <point x="504" y="104"/>
      <point x="416" y="16"/>
      <point x="308" y="16" type="curve" smooth="yes"/>
      <point x="200" y="16"/>
      <point x="112" y="104"/>
      <point x="112" y="212" type="curve" smooth="yes"/>
      <point x="112" y="640" type="line" smooth="yes"/>
      <point x="112" y="748"/>
      <point x="200" y="836"/>
    </contour>
    <contour>
      <point x="536" y="640" type="line" smooth="yes"/>
      <point x="536" y="748"/>
      <point x="624" y="836"/>
      <point x="732" y="836" type="curve" smooth="yes"/>
      <point x="840" y="836"/>
      <point x="928" y="748"/>
      <point x="928" y="640" type="curve" smooth="yes"/>
      <point x="928" y="450" type="line"/>
      <point x="536" y="450" type="line"/>
    </contour>
  </outline>
</glyph>
<glyph name="florin" format="1">
  <advance width="603"/>
  <unicode hex="0192"/>
  <outline>
    <contour>
      <point x="547" y="1184" type="curve" smooth="yes"/>
      <point x="556" y="1184"/>
      <point x="563" y="1191"/>
      <point x="563" y="1200" type="curve" smooth="yes"/>
      <point x="563" y="1209"/>
      <point x="556" y="1216"/>
      <point x="547" y="1216" type="curve" smooth="yes"/>
      <point x="290" y="1216"/>
      <point x="80" y="1006"/>
      <point x="80" y="749" type="curve" smooth="yes"/>
      <point x="80" y="16" type="line" smooth="yes"/>
      <point x="80" y="-87"/>
      <point x="-4" y="-171"/>
      <point x="-107" y="-171" type="curve" smooth="yes"/>
      <point x="-116" y="-171"/>
      <point x="-123" y="-178"/>
      <point x="-123" y="-187" type="curve" smooth="yes"/>
      <point x="-123" y="-196"/>
      <point x="-116" y="-203"/>
      <point x="-107" y="-203" type="curve" smooth="yes"/>
      <point x="14" y="-203"/>
      <point x="112" y="-105"/>
      <point x="112" y="16" type="curve" smooth="yes"/>
      <point x="112" y="749" type="line" smooth="yes"/>
      <point x="112" y="988"/>
      <point x="308" y="1184"/>
    </contour>
    <contour>
      <point x="336" y="463" type="line" smooth="yes"/>
      <point x="345" y="463"/>
      <point x="352" y="470"/>
      <point x="352" y="479" type="curve" smooth="yes"/>
      <point x="352" y="488"/>
      <point x="345" y="495"/>
      <point x="336" y="495" type="curve" smooth="yes"/>
      <point x="106" y="495" type="line" smooth="yes"/>
      <point x="97" y="495"/>
      <point x="90" y="488"/>
      <point x="90" y="479" type="curve" smooth="yes"/>
      <point x="90" y="470"/>
      <point x="97" y="463"/>
      <point x="106" y="463" type="curve" smooth="yes"/>
    </contour>
  </outline>
</glyph>
<glyph name="dotlessj" format="1">
  <advance width="196.0"/>
  <unicode hex="0237"/>
  <outline>
    <contour>
      <point x="96" y="852" type="curve" smooth="yes"/>
      <point x="88" y="852"/>
      <point x="80" y="844"/>
      <point x="80" y="836" type="curve" smooth="yes"/>
      <point x="80" y="16" type="line" smooth="yes"/>
      <point x="80" y="-36"/>
      <point x="60" y="-86"/>
      <point x="22" y="-122" type="curve" smooth="yes"/>
      <point x="16" y="-128"/>
      <point x="16" y="-138"/>
      <point x="22" y="-146" type="curve" smooth="yes"/>
      <point x="26" y="-148"/>
      <point x="30" y="-150"/>
      <point x="34" y="-150" type="curve" smooth="yes"/>
      <point x="38" y="-150"/>
      <point x="42" y="-148"/>
      <point x="46" y="-146" type="curve" smooth="yes"/>
      <point x="88" y="-102"/>
      <point x="112" y="-44"/>
      <point x="112" y="16" type="curve" smooth="yes"/>
      <point x="112" y="836" type="line" smooth="yes"/>
      <point x="112" y="844"/>
      <point x="104" y="852"/>
    </contour>
  </outline>
</glyph>
<glyph name="circumflex" format="1">
  <advance width="612.0"/>
  <unicode hex="02C6"/>
  <outline>
    <contour>
      <point x="396" y="1262" type="curve" smooth="yes"/>
      <point x="406" y="1262"/>
      <point x="410" y="1270"/>
      <point x="410" y="1276" type="curve" smooth="yes"/>
      <point x="410" y="1280"/>
      <point x="408" y="1286"/>
      <point x="406" y="1290" type="curve" smooth="yes"/>
      <point x="324" y="1372" type="line" smooth="yes"/>
      <point x="320" y="1376"/>
      <point x="316" y="1376"/>
      <point x="312" y="1376" type="curve" smooth="yes"/>
      <point x="308" y="1376"/>
      <point x="304" y="1376"/>
      <point x="300" y="1372" type="curve" smooth="yes"/>
      <point x="218" y="1290" type="line" smooth="yes"/>
      <point x="214" y="1286"/>
      <point x="214" y="1280"/>
      <point x="214" y="1276" type="curve" smooth="yes"/>
      <point x="214" y="1268"/>
      <point x="220" y="1262"/>
      <point x="228" y="1262" type="curve" smooth="yes"/>
      <point x="232" y="1262"/>
      <point x="236" y="1262"/>
      <point x="240" y="1266" type="curve" smooth="yes"/>
      <point x="312" y="1338" type="line"/>
      <point x="384" y="1266" type="line" smooth="yes"/>
      <point x="388" y="1264"/>
      <point x="392" y="1262"/>
    </contour>
  </outline>
</glyph>
<glyph name="tilde" format="1">
  <advance width="380.0"/>
  <unicode hex="02DC"/>
  <outline>
    <contour>
      <point x="83" y="1315" type="curve" smooth="yes"/>
      <point x="89" y="1345"/>
      <point x="115" y="1369"/>
      <point x="148" y="1369" type="curve" smooth="yes"/>
      <point x="172" y="1369"/>
      <point x="193" y="1356"/>
      <point x="205" y="1336" type="curve" smooth="yes"/>
      <point x="211" y="1326"/>
      <point x="222" y="1319"/>
      <point x="234" y="1319" type="curve" smooth="yes"/>
      <point x="251" y="1319"/>
      <point x="265" y="1331"/>
      <point x="267" y="1347" type="curve" smooth="yes"/>
      <point x="269" y="1355"/>
      <point x="277" y="1361"/>
      <point x="286" y="1360" type="curve" smooth="yes"/>
      <point x="294" y="1358"/>
      <point x="300" y="1350"/>
      <point x="299" y="1341" type="curve" smooth="yes"/>
      <point x="293" y="1311"/>
      <point x="267" y="1287"/>
      <point x="234" y="1287" type="curve" smooth="yes"/>
      <point x="210" y="1287"/>
      <point x="189" y="1300"/>
      <point x="177" y="1320" type="curve" smooth="yes"/>
      <point x="171" y="1330"/>
      <point x="160" y="1337"/>
      <point x="148" y="1337" type="curve" smooth="yes"/>
      <point x="131" y="1337"/>
      <point x="117" y="1325"/>
      <point x="115" y="1309" type="curve" smooth="yes"/>
      <point x="113" y="1301"/>
      <point x="105" y="1295"/>
      <point x="96" y="1296" type="curve" smooth="yes"/>
      <point x="88" y="1298"/>
      <point x="82" y="1306"/>
    </contour>
  </outline>
</glyph>
<glyph name="hungarumlaut" format="1">
  <advance width="318.0"/>
  <unicode hex="02DD"/>
  <outline>
    <contour>
      <point x="98" y="1262" type="curve" smooth="yes"/>
      <point x="102" y="1262"/>
      <point x="106" y="1264"/>
      <point x="110" y="1266" type="curve"/>
      <point x="232" y="1390" type="line" smooth="yes"/>
      <point x="234" y="1392"/>
      <point x="236" y="1396"/>
      <point x="236" y="1400" type="curve" smooth="yes"/>
      <point x="236" y="1410"/>
      <point x="230" y="1416"/>
      <point x="220" y="1416" type="curve" smooth="yes"/>
      <point x="216" y="1416"/>
      <point x="212" y="1414"/>
      <point x="210" y="1412" type="curve" smooth="yes"/>
      <point x="86" y="1290" type="line" smooth="yes"/>
      <point x="82" y="1286"/>
      <point x="82" y="1280"/>
      <point x="82" y="1276" type="curve" smooth="yes"/>
      <point x="82" y="1268"/>
      <point x="90" y="1262"/>
    </contour>
    <contour>
      <point x="238" y="1262" type="curve" smooth="yes"/>
      <point x="242" y="1262"/>
      <point x="246" y="1264"/>
      <point x="250" y="1266" type="curve"/>
      <point x="372" y="1390" type="line" smooth="yes"/>
      <point x="374" y="1392"/>
      <point x="376" y="1396"/>
      <point x="376" y="1400" type="curve" smooth="yes"/>
      <point x="376" y="1410"/>
      <point x="370" y="1416"/>
      <point x="360" y="1416" type="curve" smooth="yes"/>
      <point x="356" y="1416"/>
      <point x="352" y="1414"/>
      <point x="350" y="1412" type="curve" smooth="yes"/>
      <point x="226" y="1290" type="line" smooth="yes"/>
      <point x="222" y="1286"/>
      <point x="222" y="1280"/>
      <point x="222" y="1276" type="curve" smooth="yes"/>
      <point x="222" y="1268"/>
      <point x="230" y="1262"/>
    </contour>
  </outline>
</glyph>
<glyph name="mu" format="1">
  <advance width="1095"/>
  <unicode hex="03BC"/>
  <outline>
    <contour>
      <point x="80" y="-267" type="line" smooth="yes"/>
      <point x="80" y="-276"/>
      <point x="87" y="-283"/>
      <point x="96" y="-283" type="curve" smooth="yes"/>
      <point x="105" y="-283"/>
      <point x="112" y="-276"/>
      <point x="112" y="-267" type="curve" smooth="yes"/>
      <point x="112" y="917" type="line" smooth="yes"/>
      <point x="112" y="926"/>
      <point x="105" y="933"/>
      <point x="96" y="933" type="curve" smooth="yes"/>
      <point x="87" y="933"/>
      <point x="80" y="926"/>
      <point x="80" y="917" type="curve" smooth="yes"/>
    </contour>
    <contour>
      <point x="1015" y="917" type="line" smooth="yes"/>
      <point x="1015" y="926"/>
      <point x="1008" y="933"/>
      <point x="999" y="933" type="curve" smooth="yes"/>
      <point x="990" y="933"/>
      <point x="983" y="926"/>
      <point x="983" y="917" type="curve" smooth="yes"/>
      <point x="983" y="451" type="line" smooth="yes"/>
      <point x="983" y="212"/>
      <point x="787" y="16"/>
      <point x="548" y="16" type="curve" smooth="yes"/>
      <point x="338" y="16"/>
      <point x="160" y="167"/>
      <point x="121" y="367" type="curve" smooth="yes"/>
      <point x="119" y="376"/>
      <point x="110" y="381"/>
      <point x="102" y="380" type="curve" smooth="yes"/>
      <point x="93" y="378"/>
      <point x="88" y="369"/>
      <point x="89" y="361" type="curve" smooth="yes"/>
      <point x="132" y="147"/>
      <point x="322" y="-16"/>
      <point x="548" y="-16" type="curve" smooth="yes"/>
      <point x="805" y="-16"/>
      <point x="1015" y="194"/>
      <point x="1015" y="451" type="curve" smooth="yes"/>
    </contour>
  </outline>
</glyph>
<glyph name="quoteleft" format="1">
  <advance width="500"/>
  <unicode hex="2018"/>
  <outline>
    <contour>
      <point x="97" y="1209" type="curve"/>
      <point x="62" y="1137" type="line" smooth="yes"/>
      <point x="57" y="1127"/>
      <point x="60" y="1112"/>
      <point x="74" y="1106" type="curve" smooth="yes"/>
      <point x="86" y="1100"/>
      <point x="104" y="1109"/>
      <point x="108" y="1121" type="curve" smooth="yes"/>
      <point x="127" y="1197" type="line" smooth="yes"/>
      <point x="129" y="1206"/>
      <point x="125" y="1214"/>
      <point x="118" y="1216" type="curve" smooth="yes"/>
      <point x="110" y="1220"/>
      <point x="101" y="1217"/>
    </contour>
  </outline>
</glyph>
<glyph name="dagger" format="1">
  <advance width="612.0"/>
  <unicode hex="2020"/>
  <outline>
    <contour>
      <point x="516" y="990" type="curve"/>
      <point x="322" y="990" type="line"/>
      <point x="322" y="1184" type="line" smooth="yes"/>
      <point x="322" y="1194"/>
      <point x="314" y="1200"/>
      <point x="306" y="1200" type="curve" smooth="yes"/>
      <point x="298" y="1200"/>
      <point x="290" y="1194"/>
      <point x="290" y="1184" type="curve" smooth="yes"/>
      <point x="290" y="990" type="line"/>
      <point x="96" y="990" type="line" smooth="yes"/>
      <point x="88" y="990"/>
      <point x="80" y="984"/>
      <point x="80" y="974" type="curve" smooth="yes"/>
      <point x="80" y="966"/>
      <point x="88" y="958"/>
      <point x="96" y="958" type="curve" smooth="yes"/>
      <point x="290" y="958" type="line"/>
      <point x="290" y="16" type="line" smooth="yes"/>
      <point x="290" y="8"/>
      <point x="298" y="0"/>
      <point x="306" y="0" type="curve" smooth="yes"/>
      <point x="314" y="0"/>
      <point x="322" y="8"/>
      <point x="322" y="16" type="curve" smooth="yes"/>
      <point x="322" y="958" type="line"/>
      <point x="516" y="958" type="line" smooth="yes"/>
      <point x="524" y="958"/>
      <point x="532" y="966"/>
      <point x="532" y="974" type="curve" smooth="yes"/>
      <point x="532" y="984"/>
      <point x="524" y="990"/>
    </contour>
  </outline>
</glyph>
<glyph name="bullet" format="1">
  <advance width="374"/>
  <unicode hex="2022"/>
  <outline>
    <contour>
      <point x="187" y="319" type="curve" smooth="yes"/>
      <point x="245" y="319"/>
      <point x="294" y="366"/>
      <point x="294" y="426" type="curve" smooth="yes"/>
      <point x="294" y="484"/>
      <point x="245" y="533"/>
      <point x="187" y="533" type="curve" smooth="yes"/>
      <point x="127" y="533"/>
      <point x="80" y="484"/>
      <point x="80" y="426" type="curve" smooth="yes"/>
      <point x="80" y="366"/>
      <point x="127" y="319"/>
    </contour>
  </outline>
</glyph>
<glyph name="guilsinglleft" format="1">
  <advance width="284"/>
  <unicode hex="2039"/>
  <outline>
    <contour>
      <point x="224" y="560" type="curve" smooth="yes"/>
      <point x="224" y="568"/>
      <point x="218" y="576"/>
      <point x="210" y="576" type="curve" smooth="yes"/>
      <point x="206" y="576"/>
      <point x="200" y="574"/>
      <point x="196" y="572" type="curve"/>
      <point x="66" y="440" type="line" smooth="yes"/>
      <point x="62" y="436"/>
      <point x="60" y="432"/>
      <point x="60" y="428" type="curve" smooth="yes"/>
      <point x="60" y="424"/>
      <point x="62" y="420"/>
      <point x="66" y="416" type="curve" smooth="yes"/>
      <point x="196" y="284" type="line" smooth="yes"/>
      <point x="200" y="280"/>
      <point x="206" y="280"/>
      <point x="210" y="280" type="curve" smooth="yes"/>
      <point x="220" y="280"/>
      <point x="224" y="288"/>
      <point x="224" y="296" type="curve" smooth="yes"/>
      <point x="224" y="300"/>
      <point x="224" y="304"/>
      <point x="220" y="308" type="curve" smooth="yes"/>
      <point x="98" y="428" type="line"/>
      <point x="220" y="548" type="line"/>
      <point x="222" y="552"/>
      <point x="224" y="556"/>
    </contour>
  </outline>
</glyph>
<glyph name="guilsinglright" format="1">
  <advance width="284"/>
  <unicode hex="203A"/>
  <outline>
    <contour>
      <point x="60" y="560" type="curve" smooth="yes"/>
      <point x="60" y="556"/>
      <point x="62" y="552"/>
      <point x="64" y="548" type="curve"/>
      <point x="186" y="428" type="line"/>
      <point x="64" y="308" type="line" smooth="yes"/>
      <point x="60" y="304"/>
      <point x="60" y="300"/>
      <point x="60" y="296" type="curve" smooth="yes"/>
      <point x="60" y="288"/>
      <point x="64" y="280"/>
      <point x="74" y="280" type="curve" smooth="yes"/>
      <point x="78" y="280"/>
      <point x="84" y="280"/>
      <point x="88" y="284" type="curve" smooth="yes"/>
      <point x="218" y="416" type="line" smooth="yes"/>
      <point x="222" y="420"/>
      <point x="224" y="424"/>
      <point x="224" y="428" type="curve" smooth="yes"/>
      <point x="224" y="432"/>
      <point x="222" y="436"/>
      <point x="218" y="440" type="curve" smooth="yes"/>
      <point x="88" y="572" type="line"/>
      <point x="84" y="574"/>
      <point x="78" y="576"/>
      <point x="74" y="576" type="curve" smooth="yes"/>
      <point x="66" y="576"/>
      <point x="60" y="568"/>
    </contour>
  </outline>
</glyph>
<glyph name="six.sup" format="1">
  <advance width="404"/>
  <unicode hex="2076"/>
  <outline>
    <contour>
      <point x="324" y="706" type="curve" smooth="yes"/>
      <point x="324" y="866" type="line" smooth="yes"/>
      <point x="324" y="934"/>
      <point x="269" y="988"/>
      <point x="202" y="988" type="curve" smooth="yes"/>
      <point x="166" y="988"/>
      <point x="134" y="973"/>
      <point x="112" y="948" type="curve"/>
      <point x="112" y="1110" type="line" smooth="yes"/>
      <point x="112" y="1160"/>
      <point x="153" y="1200"/>
      <point x="202" y="1200" type="curve" smooth="yes"/>
      <point x="251" y="1200"/>
      <point x="292" y="1160"/>
      <point x="292" y="1110" type="curve" smooth="yes"/>
      <point x="292" y="1101"/>
      <point x="299" y="1094"/>
      <point x="308" y="1094" type="curve" smooth="yes"/>
      <point x="317" y="1094"/>
      <point x="324" y="1101"/>
      <point x="324" y="1110" type="curve" smooth="yes"/>
      <point x="324" y="1178"/>
      <point x="269" y="1232"/>
      <point x="202" y="1232" type="curve" smooth="yes"/>
      <point x="135" y="1232"/>
      <point x="80" y="1178"/>
      <point x="80" y="1110" type="curve" smooth="yes"/>
      <point x="80" y="706" type="line" smooth="yes"/>
      <point x="80" y="639"/>
      <point x="135" y="584"/>
      <point x="202" y="584" type="curve" smooth="yes"/>
      <point x="269" y="584"/>
      <point x="324" y="639"/>
    </contour>
    <contour>
      <point x="202" y="616" type="curve" smooth="yes"/>
      <point x="153" y="616"/>
      <point x="112" y="657"/>
      <point x="112" y="706" type="curve" smooth="yes"/>
      <point x="112" y="866" type="line" smooth="yes"/>
      <point x="112" y="916"/>
      <point x="153" y="956"/>
      <point x="202" y="956" type="curve" smooth="yes"/>
      <point x="251" y="956"/>
      <point x="292" y="916"/>
      <point x="292" y="866" type="curve" smooth="yes"/>
      <point x="292" y="706" type="line" smooth="yes"/>
      <point x="292" y="657"/>
      <point x="251" y="616"/>
    </contour>
  </outline>
</glyph>
<glyph name="eight.sup" format="1">
  <advance width="404"/>
  <unicode hex="2078"/>
  <outline>
    <contour>
      <point x="202" y="584" type="curve" smooth="yes"/>
      <point x="269" y="584"/>
      <point x="324" y="639"/>
      <point x="324" y="706" type="curve" smooth="yes"/>
      <point x="324" y="846" type="line" smooth="yes"/>
      <point x="324" y="892"/>
      <point x="299" y="931"/>
      <point x="262" y="952" type="curve"/>
      <point x="299" y="973"/>
      <point x="324" y="1013"/>
      <point x="324" y="1058" type="curve" smooth="yes"/>
      <point x="324" y="1110" type="line" smooth="yes"/>
      <point x="324" y="1178"/>
      <point x="269" y="1232"/>
      <point x="202" y="1232" type="curve" smooth="yes"/>
      <point x="135" y="1232"/>
      <point x="80" y="1178"/>
      <point x="80" y="1110" type="curve" smooth="yes"/>
      <point x="80" y="1058" type="line" smooth="yes"/>
      <point x="80" y="1013"/>
      <point x="105" y="973"/>
      <point x="142" y="952" type="curve"/>
      <point x="105" y="931"/>
      <point x="80" y="892"/>
      <point x="80" y="846" type="curve" smooth="yes"/>
      <point x="80" y="706" type="line" smooth="yes"/>
      <point x="80" y="639"/>
      <point x="135" y="584"/>
    </contour>
    <contour>
      <point x="112" y="1110" type="line" smooth="yes"/>
      <point x="112" y="1160"/>
      <point x="153" y="1200"/>
      <point x="202" y="1200" type="curve" smooth="yes"/>
      <point x="251" y="1200"/>
      <point x="292" y="1160"/>
      <point x="292" y="1110" type="curve" smooth="yes"/>
      <point x="292" y="1058" type="line" smooth="yes"/>
      <point x="292" y="1009"/>
      <point x="251" y="968"/>
      <point x="202" y="968" type="curve" smooth="yes"/>
      <point x="153" y="968"/>
      <point x="112" y="1009"/>
      <point x="112" y="1058" type="curve" smooth="yes"/>
    </contour>
    <contour>
      <point x="292" y="706" type="line" smooth="yes"/>
      <point x="292" y="657"/>
      <point x="251" y="616"/>
      <point x="202" y="616" type="curve" smooth="yes"/>
      <point x="153" y="616"/>
      <point x="112" y="657"/>
      <point x="112" y="706" type="curve" smooth="yes"/>
      <point x="112" y="846" type="line" smooth="yes"/>
      <point x="112" y="896"/>
      <point x="153" y="936"/>
      <point x="202" y="936" type="curve" smooth="yes"/>
      <point x="251" y="936"/>
      <point x="292" y="896"/>
      <point x="292" y="846" type="curve" smooth="yes"/>
    </contour>
  </outline>
</glyph>
<glyph name="franc" format="1">
  <advance width="632.0"/>
  <unicode hex="20A3"/>
  <outline>
    <contour>
      <point x="323" y="0" type="curve" smooth="yes"/>
      <point x="331" y="0"/>
      <point x="339" y="8"/>
      <point x="339" y="16" type="curve" smooth="yes"/>
      <point x="339" y="640" type="line" smooth="yes"/>
      <point x="339" y="748"/>
      <point x="427" y="836"/>
      <point x="535" y="836" type="curve" smooth="yes"/>
      <point x="543" y="836"/>
      <point x="551" y="844"/>
      <point x="551" y="852" type="curve" smooth="yes"/>
      <point x="551" y="860"/>
      <point x="543" y="868"/>
      <point x="535" y="868" type="curve" smooth="yes"/>
      <point x="451" y="868"/>
      <point x="379" y="824"/>
      <point x="339" y="756" type="curve"/>
      <point x="339" y="820" type="line" smooth="yes"/>
      <point x="339" y="828"/>
      <point x="331" y="836"/>
      <point x="323" y="836" type="curve"/>
      <point x="315" y="836"/>
      <point x="307" y="828"/>
      <point x="307" y="820" type="curve" smooth="yes"/>
      <point x="307" y="752" type="line"/>
      <point x="112" y="752" type="line"/>
      <point x="112" y="1168" type="line"/>
      <point x="536" y="1168" type="line" smooth="yes"/>
      <point x="544" y="1168"/>
      <point x="552" y="1176"/>
      <point x="552" y="1184" type="curve" smooth="yes"/>
      <point x="552" y="1192"/>
      <point x="544" y="1200"/>
      <point x="536" y="1200" type="curve"/>
      <point x="96" y="1200" type="line" smooth="yes"/>
      <point x="88" y="1200"/>
      <point x="80" y="1192"/>
      <point x="80" y="1184" type="curve" smooth="yes"/>
      <point x="80" y="16" type="line" smooth="yes"/>
      <point x="80" y="8"/>
      <point x="88" y="0"/>
      <point x="96" y="0" type="curve" smooth="yes"/>
      <point x="104" y="0"/>
      <point x="112" y="8"/>
      <point x="112" y="16" type="curve" smooth="yes"/>
      <point x="112" y="720" type="line"/>
      <point x="307" y="720" type="line"/>
      <point x="307" y="16" type="line" smooth="yes"/>
      <point x="307" y="8"/>
      <point x="315" y="0"/>
    </contour>
  </outline>
</glyph>
<glyph name="Euro" format="1">
  <advance width="666.0"/>
  <unicode hex="20AC"/>
  <outline>
    <contour>
      <point x="586" y="212" type="curve"/>
      <point x="586" y="220"/>
      <point x="578" y="228"/>
      <point x="570" y="228" type="curve" smooth="yes"/>
      <point x="562" y="228"/>
      <point x="554" y="220"/>
      <point x="554" y="212" type="curve"/>
      <point x="554" y="104"/>
      <point x="466" y="16"/>
      <point x="358" y="16" type="curve" smooth="yes"/>
      <point x="250" y="16"/>
      <point x="162" y="104"/>
      <point x="162" y="212" type="curve" smooth="yes"/>
      <point x="162" y="574" type="line"/>
      <point x="311" y="574" type="line" smooth="yes"/>
      <point x="320" y="574"/>
      <point x="327" y="581"/>
      <point x="327" y="590" type="curve" smooth="yes"/>
      <point x="327" y="599"/>
      <point x="320" y="606"/>
      <point x="311" y="606" type="curve" smooth="yes"/>
      <point x="163" y="606" type="line"/>
      <point x="163" y="654" type="line"/>
      <point x="311" y="654" type="line" smooth="yes"/>
      <point x="320" y="654"/>
      <point x="327" y="661"/>
      <point x="327" y="670" type="curve" smooth="yes"/>
      <point x="327" y="679"/>
      <point x="320" y="686"/>
      <point x="311" y="686" type="curve" smooth="yes"/>
      <point x="162" y="686" type="line"/>
      <point x="162" y="988" type="line" smooth="yes"/>
      <point x="162" y="1096"/>
      <point x="250" y="1184"/>
      <point x="358" y="1184" type="curve" smooth="yes"/>
      <point x="466" y="1184"/>
      <point x="554" y="1096"/>
      <point x="554" y="988" type="curve"/>
      <point x="554" y="980"/>
      <point x="562" y="972"/>
      <point x="570" y="972" type="curve" smooth="yes"/>
      <point x="578" y="972"/>
      <point x="586" y="980"/>
      <point x="586" y="988" type="curve"/>
      <point x="586" y="1114"/>
      <point x="484" y="1216"/>
      <point x="358" y="1216" type="curve" smooth="yes"/>
      <point x="232" y="1216"/>
      <point x="130" y="1114"/>
      <point x="130" y="988" type="curve" smooth="yes"/>
      <point x="130" y="686" type="line"/>
      <point x="76" y="686" type="line" smooth="yes"/>
      <point x="67" y="686"/>
      <point x="60" y="679"/>
      <point x="60" y="670" type="curve" smooth="yes"/>
      <point x="60" y="661"/>
      <point x="67" y="654"/>
      <point x="76" y="654" type="curve" smooth="yes"/>
      <point x="130" y="654" type="line"/>
      <point x="130" y="606" type="line"/>
      <point x="76" y="606" type="line" smooth="yes"/>
      <point x="67" y="606"/>
      <point x="60" y="599"/>
      <point x="60" y="590" type="curve" smooth="yes"/>
      <point x="60" y="581"/>
      <point x="67" y="574"/>
      <point x="76" y="574" type="curve" smooth="yes"/>
      <point x="130" y="574" type="line"/>
      <point x="130" y="212" type="line" smooth="yes"/>
      <point x="130" y="86"/>
      <point x="232" y="-16"/>
      <point x="358" y="-16" type="curve" smooth="yes"/>
      <point x="484" y="-16"/>
      <point x="586" y="86"/>
    </contour>
  </outline>
</glyph>
<glyph name="trademark" format="1">
  <advance width="861"/>
  <unicode hex="2122"/>
  <outline>
    <contour>
      <point x="360" y="1200" type="curve"/>
      <point x="96" y="1200" type="line" smooth="yes"/>
      <point x="88" y="1200"/>
      <point x="80" y="1192"/>
      <point x="80" y="1184" type="curve" smooth="yes"/>
      <point x="80" y="1176"/>
      <point x="88" y="1168"/>
      <point x="96" y="1168" type="curve" smooth="yes"/>
      <point x="212" y="1168" type="line"/>
      <point x="212" y="852" type="line" smooth="yes"/>
      <point x="212" y="844"/>
      <point x="220" y="836"/>
      <point x="228" y="836" type="curve" smooth="yes"/>
      <point x="236" y="836"/>
      <point x="244" y="844"/>
      <point x="244" y="852" type="curve" smooth="yes"/>
      <point x="244" y="1168" type="line"/>
      <point x="360" y="1168" type="line" smooth="yes"/>
      <point x="368" y="1168"/>
      <point x="376" y="1176"/>
      <point x="376" y="1184" type="curve" smooth="yes"/>
      <point x="376" y="1192"/>
      <point x="368" y="1200"/>
    </contour>
    <contour>
      <point x="765" y="836" type="curve" smooth="yes"/>
      <point x="774" y="836"/>
      <point x="781" y="843"/>
      <point x="781" y="852" type="curve" smooth="yes"/>
      <point x="781" y="1200" type="line" smooth="yes"/>
      <point x="781" y="1212"/>
      <point x="776" y="1219"/>
      <point x="769" y="1219" type="curve" smooth="yes"/>
      <point x="765" y="1219"/>
      <point x="759" y="1216"/>
      <point x="754" y="1211" type="curve" smooth="yes"/>
      <point x="605" y="1062" type="line"/>
      <point x="457" y="1210" type="line" smooth="yes"/>
      <point x="452" y="1215"/>
      <point x="446" y="1218"/>
      <point x="442" y="1218" type="curve" smooth="yes"/>
      <point x="435" y="1218"/>
      <point x="430" y="1211"/>
      <point x="430" y="1199" type="curve" smooth="yes"/>
      <point x="430" y="852" type="line" smooth="yes"/>
      <point x="430" y="843"/>
      <point x="437" y="836"/>
      <point x="446" y="836" type="curve" smooth="yes"/>
      <point x="455" y="836"/>
      <point x="462" y="843"/>
      <point x="462" y="852" type="curve" smooth="yes"/>
      <point x="462" y="1161" type="line"/>
      <point x="594" y="1029" type="line" smooth="yes"/>
      <point x="597" y="1026"/>
      <point x="601" y="1024"/>
      <point x="605" y="1024" type="curve" smooth="yes"/>
      <point x="609" y="1024"/>
      <point x="613" y="1026"/>
      <point x="616" y="1029" type="curve" smooth="yes"/>
      <point x="749" y="1162" type="line"/>
      <point x="749" y="852" type="line" smooth="yes"/>
      <point x="749" y="843"/>
      <point x="756" y="836"/>
    </contour>
  </outline>
</glyph>
<glyph name="partialdiff" format="1">
  <advance width="616.0"/>
  <unicode hex="2202"/>
  <outline>
    <contour>
      <point x="308" y="1212" type="curve"/>
      <point x="300" y="1212"/>
      <point x="292" y="1204"/>
      <point x="292" y="1196" type="curve" smooth="yes"/>
      <point x="292" y="1188"/>
      <point x="300" y="1180"/>
      <point x="308" y="1180" type="curve"/>
      <point x="416" y="1180"/>
      <point x="504" y="1092"/>
      <point x="504" y="984" type="curve" smooth="yes"/>
      <point x="504" y="772" type="line"/>
      <point x="464" y="840"/>
      <point x="392" y="884"/>
      <point x="308" y="884" type="curve" smooth="yes"/>
      <point x="182" y="884"/>
      <point x="80" y="782"/>
      <point x="80" y="656" type="curve" smooth="yes"/>
      <point x="80" y="196" type="line" smooth="yes"/>
      <point x="80" y="70"/>
      <point x="182" y="-32"/>
      <point x="308" y="-32" type="curve" smooth="yes"/>
      <point x="434" y="-32"/>
      <point x="536" y="70"/>
      <point x="536" y="196" type="curve" smooth="yes"/>
      <point x="536" y="984" type="line" smooth="yes"/>
      <point x="536" y="1110"/>
      <point x="434" y="1212"/>
    </contour>
    <contour>
      <point x="112" y="196" type="curve"/>
      <point x="112" y="656" type="line" smooth="yes"/>
      <point x="112" y="764"/>
      <point x="200" y="852"/>
      <point x="308" y="852" type="curve" smooth="yes"/>
      <point x="416" y="852"/>
      <point x="504" y="764"/>
      <point x="504" y="656" type="curve" smooth="yes"/>
      <point x="504" y="196" type="line" smooth="yes"/>
      <point x="504" y="88"/>
      <point x="416" y="0"/>
      <point x="308" y="0" type="curve" smooth="yes"/>
      <point x="200" y="0"/>
      <point x="112" y="88"/>
    </contour>
  </outline>
</glyph>
<glyph name="integral" format="1">
  <advance width="364.0"/>
  <unicode hex="222B"/>
  <outline>
    <contour>
      <point x="112" y="988" type="line" smooth="yes"/>
      <point x="112" y="1096"/>
      <point x="200" y="1184"/>
      <point x="308" y="1184" type="curve" smooth="yes"/>
      <point x="316" y="1184"/>
      <point x="324" y="1192"/>
      <point x="324" y="1200" type="curve" smooth="yes"/>
      <point x="324" y="1208"/>
      <point x="316" y="1216"/>
      <point x="308" y="1216" type="curve" smooth="yes"/>
      <point x="182" y="1216"/>
      <point x="80" y="1114"/>
      <point x="80" y="988" type="curve"/>
      <point x="80" y="16" type="line"/>
      <point x="80" y="-44"/>
      <point x="32" y="-92"/>
      <point x="-26" y="-92" type="curve"/>
      <point x="-34" y="-92"/>
      <point x="-42" y="-98"/>
      <point x="-42" y="-108" type="curve" smooth="yes"/>
      <point x="-42" y="-116"/>
      <point x="-34" y="-124"/>
      <point x="-26" y="-124" type="curve"/>
      <point x="48" y="-124"/>
      <point x="112" y="-60"/>
      <point x="112" y="16" type="curve"/>
    </contour>
  </outline>
</glyph>
<glyph name="uni24C5" format="1">
  <advance width="500"/>
  <unicode hex="24C5"/>
  <outline>
    <contour>
      <point x="310" y="959" type="line"/>
      <point x="368" y="959"/>
      <point x="416" y="911"/>
      <point x="416" y="853" type="curve"/>
      <point x="416" y="723" type="line"/>
      <point x="416" y="663"/>
      <point x="368" y="615"/>
      <point x="310" y="615" type="curve"/>
      <point x="203" y="615" type="line"/>
      <point x="203" y="959" type="line"/>
    </contour>
    <contour>
      <point x="318" y="583" type="line"/>
      <point x="388" y="587"/>
      <point x="448" y="650"/>
      <point x="448" y="723" type="curve"/>
      <point x="448" y="853" type="line"/>
      <point x="448" y="927"/>
      <point x="384" y="991"/>
      <point x="310" y="991" type="curve"/>
      <point x="187" y="991" type="line"/>
      <point x="179" y="991"/>
      <point x="171" y="983"/>
      <point x="171" y="975" type="curve" smooth="yes"/>
      <point x="171" y="246" type="line"/>
      <point x="171" y="238"/>
      <point x="179" y="230"/>
      <point x="187" y="230" type="curve" smooth="yes"/>
      <point x="195" y="230"/>
      <point x="203" y="238"/>
      <point x="203" y="246" type="curve"/>
      <point x="203" y="583" type="line"/>
    </contour>
    <component base="O"/>
  </outline>
</glyph>
<glyph name="one.oldstyle" format="1">
  <advance width="616.0"/>
  <unicode hex="F731"/>
  <unicode hex="F644"/>
  <outline>
    <contour>
      <point x="522" y="32" type="curve"/>
      <point x="326" y="32" type="line"/>
      <point x="326" y="868" type="line" smooth="yes"/>
      <point x="326" y="876"/>
      <point x="318" y="884"/>
      <point x="308" y="884" type="curve" smooth="yes"/>
      <point x="306" y="884"/>
      <point x="302" y="882"/>
      <point x="298" y="880" type="curve" smooth="yes"/>
      <point x="82" y="664" type="line" smooth="yes"/>
      <point x="78" y="660"/>
      <point x="78" y="654"/>
      <point x="78" y="650" type="curve" smooth="yes"/>
      <point x="78" y="642"/>
      <point x="84" y="636"/>
      <point x="92" y="636" type="curve" smooth="yes"/>
      <point x="96" y="636"/>
      <point x="102" y="636"/>
      <point x="106" y="640" type="curve" smooth="yes"/>
      <point x="294" y="830" type="line"/>
      <point x="294" y="32" type="line"/>
      <point x="98" y="32" type="line" smooth="yes"/>
      <point x="90" y="32"/>
      <point x="82" y="24"/>
      <point x="82" y="16" type="curve" smooth="yes"/>
      <point x="82" y="8"/>
      <point x="90" y="0"/>
      <point x="98" y="0" type="curve" smooth="yes"/>
      <point x="522" y="0" type="line" smooth="yes"/>
      <point x="530" y="0"/>
      <point x="538" y="8"/>
      <point x="538" y="16" type="curve" smooth="yes"/>
      <point x="538" y="24"/>
      <point x="530" y="32"/>
    </contour>
  </outline>
</glyph>
<glyph name="three.oldstyle" format="1">
  <advance width="616.0"/>
  <unicode hex="F733"/>
  <outline>
    <contour>
      <point x="308" y="-396" type="curve" smooth="yes"/>
      <point x="434" y="-396"/>
      <point x="536" y="-294"/>
      <point x="536" y="-168" type="curve" smooth="yes"/>
      <point x="536" y="122" type="line" smooth="yes"/>
      <point x="536" y="218"/>
      <point x="476" y="300"/>
      <point x="392" y="334" type="curve"/>
      <point x="476" y="366"/>
      <point x="536" y="448"/>
      <point x="536" y="546" type="curve" smooth="yes"/>
      <point x="536" y="640" type="line" smooth="yes"/>
      <point x="536" y="766"/>
      <point x="434" y="868"/>
      <point x="308" y="868" type="curve" smooth="yes"/>
      <point x="182" y="868"/>
      <point x="80" y="766"/>
      <point x="80" y="640" type="curve" smooth="yes"/>
      <point x="80" y="632"/>
      <point x="88" y="624"/>
      <point x="96" y="624" type="curve" smooth="yes"/>
      <point x="104" y="624"/>
      <point x="112" y="632"/>
      <point x="112" y="640" type="curve" smooth="yes"/>
      <point x="112" y="748"/>
      <point x="200" y="836"/>
      <point x="308" y="836" type="curve" smooth="yes"/>
      <point x="416" y="836"/>
      <point x="504" y="748"/>
      <point x="504" y="640" type="curve" smooth="yes"/>
      <point x="504" y="546" type="line" smooth="yes"/>
      <point x="504" y="436"/>
      <point x="418" y="350"/>
      <point x="308" y="350" type="curve" smooth="yes"/>
      <point x="300" y="350"/>
      <point x="292" y="342"/>
      <point x="292" y="334" type="curve" smooth="yes"/>
      <point x="292" y="324"/>
      <point x="300" y="318"/>
      <point x="308" y="318" type="curve" smooth="yes"/>
      <point x="416" y="318"/>
      <point x="504" y="230"/>
      <point x="504" y="122" type="curve" smooth="yes"/>
      <point x="504" y="-168" type="line" smooth="yes"/>
      <point x="504" y="-276"/>
      <point x="416" y="-364"/>
      <point x="308" y="-364" type="curve" smooth="yes"/>
      <point x="200" y="-364"/>
      <point x="112" y="-276"/>
      <point x="112" y="-168" type="curve" smooth="yes"/>
      <point x="112" y="-160"/>
      <point x="104" y="-152"/>
      <point x="96" y="-152" type="curve" smooth="yes"/>
      <point x="88" y="-152"/>
      <point x="80" y="-160"/>
      <point x="80" y="-168" type="curve" smooth="yes"/>
      <point x="80" y="-294"/>
      <point x="182" y="-396"/>
    </contour>
  </outline>
</glyph>
<glyph name="five.oldstyle" format="1">
  <advance width="616.0"/>
  <unicode hex="F735"/>
  <outline>
    <contour>
      <point x="308" y="-250" type="curve" smooth="yes"/>
      <point x="434" y="-250"/>
      <point x="536" y="-148"/>
      <point x="536" y="-22" type="curve" smooth="yes"/>
      <point x="536" y="208" type="line" smooth="yes"/>
      <point x="536" y="332"/>
      <point x="434" y="436"/>
      <point x="308" y="436" type="curve" smooth="yes"/>
      <point x="112" y="436" type="line"/>
      <point x="112" y="820" type="line"/>
      <point x="520" y="820" type="line" smooth="yes"/>
      <point x="528" y="820"/>
      <point x="536" y="828"/>
      <point x="536" y="836" type="curve" smooth="yes"/>
      <point x="536" y="844"/>
      <point x="528" y="852"/>
      <point x="520" y="852" type="curve" smooth="yes"/>
      <point x="96" y="852" type="line" smooth="yes"/>
      <point x="88" y="852"/>
      <point x="80" y="844"/>
      <point x="80" y="836" type="curve" smooth="yes"/>
      <point x="80" y="420" type="line" smooth="yes"/>
      <point x="80" y="410"/>
      <point x="88" y="404"/>
      <point x="96" y="404" type="curve" smooth="yes"/>
      <point x="308" y="404" type="line" smooth="yes"/>
      <point x="416" y="404"/>
      <point x="504" y="316"/>
      <point x="504" y="208" type="curve" smooth="yes"/>
      <point x="504" y="-22" type="line" smooth="yes"/>
      <point x="504" y="-130"/>
      <point x="416" y="-218"/>
      <point x="308" y="-218" type="curve" smooth="yes"/>
      <point x="200" y="-218"/>
      <point x="112" y="-130"/>
      <point x="112" y="-22" type="curve" smooth="yes"/>
      <point x="112" y="-14"/>
      <point x="104" y="-6"/>
      <point x="96" y="-6" type="curve" smooth="yes"/>
      <point x="88" y="-6"/>
      <point x="80" y="-14"/>
      <point x="80" y="-22" type="curve" smooth="yes"/>
      <point x="80" y="-148"/>
      <point x="182" y="-250"/>
    </contour>
  </outline>
</glyph>
<glyph name="nine.oldstyle" format="1">
  <advance width="616.0"/>
  <unicode hex="F739"/>
  <outline>
    <contour>
      <point x="308" y="-395" type="curve" smooth="yes"/>
      <point x="434" y="-395"/>
      <point x="536" y="-293"/>
      <point x="536" y="-167" type="curve" smooth="yes"/>
      <point x="536" y="641" type="line" smooth="yes"/>
      <point x="536" y="767"/>
      <point x="434" y="869"/>
      <point x="308" y="869" type="curve" smooth="yes"/>
      <point x="182" y="869"/>
      <point x="80" y="767"/>
      <point x="80" y="641" type="curve" smooth="yes"/>
      <point x="80" y="212" type="line" smooth="yes"/>
      <point x="80" y="86"/>
      <point x="182" y="-16"/>
      <point x="308" y="-16" type="curve" smooth="yes"/>
      <point x="392" y="-16"/>
      <point x="464" y="28"/>
      <point x="504" y="96" type="curve"/>
      <point x="504" y="-167" type="line" smooth="yes"/>
      <point x="504" y="-275"/>
      <point x="416" y="-363"/>
      <point x="308" y="-363" type="curve" smooth="yes"/>
      <point x="200" y="-363"/>
      <point x="112" y="-275"/>
      <point x="112" y="-167" type="curve" smooth="yes"/>
      <point x="112" y="-159"/>
      <point x="104" y="-151"/>
      <point x="96" y="-151" type="curve" smooth="yes"/>
      <point x="88" y="-151"/>
      <point x="80" y="-159"/>
      <point x="80" y="-167" type="curve" smooth="yes"/>
      <point x="80" y="-293"/>
      <point x="182" y="-395"/>
    </contour>
    <contour>
      <point x="308" y="837" type="curve" smooth="yes"/>
      <point x="416" y="837"/>
      <point x="504" y="749"/>
      <point x="504" y="641" type="curve" smooth="yes"/>
      <point x="504" y="212" type="line" smooth="yes"/>
      <point x="504" y="104"/>
      <point x="416" y="16"/>
      <point x="308" y="16" type="curve" smooth="yes"/>
      <point x="200" y="16"/>
      <point x="112" y="104"/>
      <point x="112" y="212" type="curve" smooth="yes"/>
      <point x="112" y="641" type="line" smooth="yes"/>
      <point x="112" y="749"/>
      <point x="200" y="837"/>
    </contour>
  </outline>
</glyph>
